<?xml version="1.0" encoding="utf-8"?>
<!-- Generator: Adobe Illustrator 16.0.0, SVG Export Plug-In . SVG Version: 6.00 Build 0)  -->
<!DOCTYPE svg PUBLIC "-//W3C//DTD SVG 1.1//EN" "http://www.w3.org/Graphics/SVG/1.1/DTD/svg11.dtd">
<svg version="1.1" id="Layer_1" xmlns="http://www.w3.org/2000/svg" xmlns:xlink="http://www.w3.org/1999/xlink" x="0px" y="0px"
	 width="350px" height="150px" viewBox="0 0 350 150" enable-background="new 0 0 350 150" xml:space="preserve">
<g>
	<path fill="#F78D1E" d="M175.598,70.636h-10.06c-0.792,2.883-2.49,4.295-5.143,4.295c-1.753,0-3.054-0.565-3.9-1.694
		c-1.019-1.3-1.527-4.636-1.527-9.949c0-5.313,0.508-8.645,1.527-9.945c0.847-1.129,2.147-1.697,3.9-1.697
		c2.652,0,4.351,1.415,5.143,4.298h10.06c-0.68-4.129-2.374-7.348-5.03-9.667c-2.655-2.318-6.048-3.448-10.231-3.448
		c-4.466,0-8.195,1.528-11.189,4.521c-1.864,1.866-3.109,4.296-3.618,7.293c-0.282,1.694-0.452,4.577-0.452,8.645
		c0,4.071,0.17,6.951,0.452,8.648c0.508,2.994,1.753,5.425,3.618,7.288c2.994,2.998,6.724,4.521,11.189,4.521
		c4.184,0,7.631-1.131,10.286-3.447C173.28,77.984,174.918,74.76,175.598,70.636"/>
	<polygon fill="#F78D1E" points="207.56,83.408 207.56,74.591 190.66,74.591 190.66,43.167 180.771,43.167 180.771,83.408 	"/>
	<polygon fill="#F78D1E" points="240.649,83.408 240.649,74.591 223.187,74.591 223.187,67.527 238.109,67.527 238.109,58.71 
		223.187,58.71 223.187,51.984 240.649,51.984 240.649,43.167 213.298,43.167 213.298,83.408 	"/>
	<polygon fill="#F78D1E" points="277.533,43.167 267.247,43.167 260.579,65.663 253.795,43.167 243.567,43.167 256.85,83.408 
		264.196,83.408 	"/>
	<polygon fill="#F78D1E" points="308.94,83.408 308.94,74.591 291.478,74.591 291.478,67.527 306.4,67.527 306.4,58.71 
		291.478,58.71 291.478,51.984 308.94,51.984 308.94,43.167 281.589,43.167 281.589,83.408 	"/>
	<path fill="#F78D1E" d="M347.75,83.408l-8.707-16.784c4.353-2.207,6.559-5.711,6.559-10.514c0-3.9-1.302-7.006-3.956-9.381
		c-2.603-2.373-5.878-3.562-9.778-3.562H315.93v40.241h9.891V68.43h3.336l7.121,14.978H347.75z M335.712,56.11
		c0,1.186-0.396,2.147-1.243,2.938c-0.852,0.736-1.865,1.13-3.053,1.13h-5.596v-8.136h5.596c1.188,0,2.201,0.394,3.053,1.185
		C335.316,53.963,335.712,54.926,335.712,56.11"/>
	<path fill="#848789" d="M161.57,109.744c0-1.762-0.547-3.229-1.674-4.211c-0.862-0.777-1.931-1.238-3.832-1.529l-2.338-0.342
		c-0.952-0.146-1.788-0.492-2.305-0.957c-0.548-0.488-0.779-1.15-0.779-1.9c0-1.818,1.326-3.203,3.748-3.203
		c1.729,0,3.2,0.377,4.47,1.586l1.99-1.957c-1.757-1.646-3.661-2.338-6.373-2.338c-4.267,0-6.864,2.451-6.864,6.029
		c0,1.668,0.492,2.969,1.5,3.92c0.896,0.838,2.225,1.412,3.895,1.641l2.421,0.35c1.213,0.172,1.729,0.375,2.249,0.865
		c0.547,0.488,0.807,1.236,0.807,2.133c0,1.992-1.558,3.145-4.237,3.145c-2.105,0-3.748-0.463-5.25-1.963l-2.078,2.047
		c1.963,1.99,4.184,2.711,7.267,2.711C158.484,115.77,161.57,113.523,161.57,109.744"/>
	<path fill="#848789" d="M186.354,105.33c0-3.949,0.056-6.229-1.958-8.248c-1.416-1.412-3.231-2.191-5.426-2.191
		c-2.19,0-3.977,0.779-5.393,2.191c-2.018,2.02-1.988,4.299-1.988,8.248s-0.029,6.229,1.988,8.248
		c1.416,1.412,3.202,2.193,5.393,2.193c2.194,0,4.01-0.781,5.426-2.193C186.41,111.559,186.354,109.279,186.354,105.33
		 M183.241,105.33c0,4.123-0.201,5.279-1.213,6.373c-0.718,0.781-1.844,1.27-3.058,1.27c-1.208,0-2.336-0.488-3.055-1.27
		c-1.009-1.094-1.211-2.25-1.211-6.373c0-4.125,0.202-5.277,1.211-6.371c0.719-0.779,1.847-1.268,3.055-1.268
		c1.214,0,2.34,0.488,3.058,1.268C183.04,100.053,183.241,101.205,183.241,105.33"/>
	<polygon fill="#848789" points="210.571,115.596 210.571,112.801 200.682,112.801 200.682,95.064 197.565,95.064 197.565,115.596 	
		"/>
	<path fill="#848789" d="M234.523,108.678V95.064h-3.113v13.469c0,2.74-1.701,4.441-4.271,4.441c-2.565,0-4.238-1.701-4.238-4.441
		V95.064h-3.111v13.613c0,4.238,3.171,7.092,7.35,7.092C231.321,115.77,234.523,112.916,234.523,108.678"/>
	<polygon fill="#848789" points="258.76,97.865 258.76,95.068 244.343,95.068 244.343,97.865 249.993,97.865 249.993,115.6 
		253.108,115.6 253.108,97.865 	"/>
	<rect x="268.893" y="95.064" fill="#848789" width="3.115" height="20.531"/>
	<path fill="#848789" d="M297.979,105.33c0-3.949,0.059-6.229-1.959-8.248c-1.415-1.412-3.232-2.191-5.424-2.191
		c-2.188,0-3.978,0.779-5.39,2.191c-2.021,2.02-1.99,4.299-1.99,8.248s-0.031,6.229,1.99,8.248c1.412,1.412,3.201,2.193,5.39,2.193
		c2.191,0,4.009-0.781,5.424-2.193C298.037,111.559,297.979,109.279,297.979,105.33 M294.865,105.33
		c0,4.123-0.202,5.279-1.214,6.373c-0.717,0.781-1.843,1.27-3.056,1.27c-1.21,0-2.337-0.488-3.057-1.27
		c-1.008-1.094-1.21-2.25-1.21-6.373c0-4.125,0.202-5.277,1.21-6.371c0.72-0.779,1.847-1.268,3.057-1.268
		c1.213,0,2.339,0.488,3.056,1.268C294.663,100.053,294.865,101.205,294.865,105.33"/>
	<polygon fill="#848789" points="324.642,115.596 324.642,95.064 321.524,95.064 321.524,109.482 312.04,95.064 309.186,95.064 
		309.186,115.596 312.299,115.596 312.299,101.146 321.785,115.596 	"/>
	<path fill="#848789" d="M349.43,109.744c0-1.762-0.547-3.229-1.673-4.211c-0.866-0.777-1.931-1.238-3.835-1.529l-2.336-0.342
		c-0.951-0.146-1.788-0.492-2.308-0.957c-0.548-0.488-0.776-1.15-0.776-1.9c0-1.818,1.323-3.203,3.747-3.203
		c1.729,0,3.198,0.377,4.473,1.586l1.986-1.957c-1.757-1.646-3.66-2.338-6.372-2.338c-4.266,0-6.863,2.451-6.863,6.029
		c0,1.668,0.492,2.969,1.499,3.92c0.896,0.838,2.22,1.412,3.893,1.641l2.423,0.35c1.213,0.172,1.729,0.375,2.249,0.865
		c0.55,0.488,0.808,1.236,0.808,2.133c0,1.992-1.559,3.145-4.238,3.145c-2.105,0-3.747-0.463-5.251-1.963l-2.072,2.047
		c1.959,1.99,4.179,2.711,7.264,2.711C346.344,115.77,349.43,113.523,349.43,109.744"/>
	
		<line fill="none" stroke="#848789" stroke-width="1.5456" stroke-miterlimit="3.864" x1="145.017" y1="89.125" x2="348.175" y2="89.125"/>
	<path fill="#848789" d="M0.57,102.744c0-17.162,15.891-31.067,35.491-31.067c19.604,0,35.494,13.905,35.494,31.067
		c0,17.156-15.891,31.064-35.494,31.064C16.461,133.809,0.57,119.9,0.57,102.744"/>
	<path fill="#848789" d="M11.3,67.943c0-28.583,26.701-51.752,59.634-51.752c32.937,0,59.638,23.169,59.638,51.752
		c0,28.583-26.701,51.75-59.638,51.75C38.001,119.693,11.3,96.525,11.3,67.943"/>
	<path fill="#F78D1E" d="M15.833,67.869c0-26.171,24.722-47.385,55.218-47.385c30.493,0,55.214,21.214,55.214,47.385
		c0,26.172-24.721,47.387-55.214,47.387C40.555,115.256,15.833,94.041,15.833,67.869"/>
	<g>
		<defs>
			<path id="SVGID_1_" d="M71.052,26.391c-20.493,0-37.415,11.646-43.317,23.118c-1.053,2.045-1.264,6.9,2.908,8.991
				c12.166,6.096,26.35,9.07,40.434,9.061l0.69-0.005c14.364,0.134,28.878-2.839,41.291-9.056c4.173-2.091,3.96-6.946,2.909-8.991
				c-5.902-11.472-22.825-23.118-43.314-23.118H71.052z"/>
		</defs>
		<clipPath id="SVGID_2_">
			<use xlink:href="#SVGID_1_"  overflow="visible"/>
		</clipPath>
		<polyline clip-path="url(#SVGID_2_)" fill="#FDC389" points="116.829,65.313 27.366,66.873 27.398,68.71 116.862,67.15 		"/>
		<polyline clip-path="url(#SVGID_2_)" fill="#FDC68F" points="116.799,63.467 27.338,65.028 27.371,66.866 116.833,65.305 		"/>
		<polyline clip-path="url(#SVGID_2_)" fill="#FDC994" points="116.768,61.623 27.305,63.183 27.337,65.02 116.8,63.46 		"/>
		<polyline clip-path="url(#SVGID_2_)" fill="#FDCC9A" points="116.735,59.777 27.271,61.337 27.304,63.175 116.768,61.616 		"/>
		<polyline clip-path="url(#SVGID_2_)" fill="#FECE9E" points="116.702,57.933 27.239,59.494 27.271,61.331 116.735,59.771 		"/>
		<polyline clip-path="url(#SVGID_2_)" fill="#FED1A3" points="116.667,56.088 27.206,57.648 27.238,59.486 116.703,57.926 		"/>
		<polyline clip-path="url(#SVGID_2_)" fill="#FED3A8" points="116.636,54.244 27.173,55.804 27.205,57.641 116.667,56.081 		"/>
		<polyline clip-path="url(#SVGID_2_)" fill="#FED6AD" points="116.606,52.398 27.144,53.958 27.177,55.796 116.639,54.236 		"/>
		<polyline clip-path="url(#SVGID_2_)" fill="#FED8B2" points="116.573,50.554 27.111,52.114 27.144,53.951 116.606,52.391 		"/>
		<polyline clip-path="url(#SVGID_2_)" fill="#FEDBB7" points="116.542,48.708 27.078,50.269 27.111,52.106 116.573,50.546 		"/>
		<polyline clip-path="url(#SVGID_2_)" fill="#FEDDBB" points="116.509,46.86 27.045,48.421 27.077,50.258 116.542,48.698 		"/>
		<polyline clip-path="url(#SVGID_2_)" fill="#FEDFBF" points="116.475,45.015 27.012,46.575 27.044,48.413 116.509,46.854 		"/>
		<polyline clip-path="url(#SVGID_2_)" fill="#FEE1C4" points="116.446,43.171 26.983,44.73 27.015,46.567 116.478,45.008 		"/>
		<polyline clip-path="url(#SVGID_2_)" fill="#FEE3C8" points="116.412,41.326 26.95,42.886 26.983,44.723 116.446,43.163 		"/>
		<polyline clip-path="url(#SVGID_2_)" fill="#FFE5CC" points="116.38,39.48 26.917,41.042 26.949,42.878 116.412,41.319 		"/>
		<polyline clip-path="url(#SVGID_2_)" fill="#FFE7D0" points="116.348,37.635 26.884,39.196 26.917,41.033 116.38,39.474 		"/>
		<polyline clip-path="url(#SVGID_2_)" fill="#FFE9D3" points="116.315,35.79 26.852,37.352 26.884,39.189 116.348,37.629 		"/>
		<polyline clip-path="url(#SVGID_2_)" fill="#FFEBD6" points="116.281,33.946 26.819,35.506 26.85,37.344 116.316,35.784 		"/>
		<polyline clip-path="url(#SVGID_2_)" fill="#FFECDA" points="116.252,32.102 26.789,33.661 26.822,35.5 116.285,33.939 		"/>
		<polyline clip-path="url(#SVGID_2_)" fill="#FFEEDD" points="116.219,30.256 26.756,31.817 26.789,33.654 116.252,32.094 		"/>
		<polyline clip-path="url(#SVGID_2_)" fill="#FFEFE0" points="116.187,28.411 26.724,29.971 26.756,31.809 116.219,30.249 		"/>
		<polyline clip-path="url(#SVGID_2_)" fill="#FFF1E3" points="116.155,26.566 26.691,28.126 26.723,29.964 116.187,28.404 		"/>
		<polyline clip-path="url(#SVGID_2_)" fill="#FFF1E3" points="116.149,26.26 26.701,27.82 26.72,28.781 116.168,27.221 		"/>
		<polyline clip-path="url(#SVGID_2_)" fill="#FFF1E3" points="116.132,25.259 26.683,26.819 26.702,27.78 116.149,26.22 		"/>
	</g>
	<g>
		<defs>
			<path id="SVGID_3_" d="M15.834,67.869c0,26.172,24.72,47.387,55.218,47.387c30.495,0,55.216-21.215,55.216-47.387
				c0-26.167-24.721-47.385-55.216-47.385C40.554,20.484,15.834,41.702,15.834,67.869"/>
		</defs>
		<clipPath id="SVGID_4_">
			<use xlink:href="#SVGID_3_"  overflow="visible"/>
		</clipPath>
		<path clip-path="url(#SVGID_4_)" fill="none" stroke="#FFFFFF" stroke-width="0.9716" stroke-miterlimit="3.864" d="
			M14.822,67.869c0-26.603,25.17-48.171,56.222-48.171c31.051,0,56.228,21.568,56.228,48.171c0,26.604-25.177,48.172-56.228,48.172
			C39.992,116.041,14.822,94.473,14.822,67.869z M19,67.869c0-26.586,25.156-48.137,56.186-48.137
			c31.031,0,56.185,21.551,56.185,48.137c0,26.588-25.154,48.139-56.185,48.139C44.156,116.008,19,94.457,19,67.869z M23.18,67.869
			c0-26.569,25.138-48.107,56.145-48.107c31.009,0,56.147,21.539,56.147,48.107c0,26.57-25.138,48.109-56.147,48.109
			C48.318,115.979,23.18,94.439,23.18,67.869z M27.359,67.869c0-26.554,25.12-48.079,56.109-48.079
			c30.986,0,56.105,21.525,56.105,48.079c0,26.555-25.12,48.078-56.105,48.078C52.479,115.947,27.359,94.424,27.359,67.869z
			 M31.542,67.869c0-26.537,25.101-48.05,56.069-48.05c30.968,0,56.069,21.513,56.069,48.05c0,26.537-25.102,48.051-56.069,48.051
			C56.643,115.92,31.542,94.406,31.542,67.869z M35.72,67.869c0-26.521,25.088-48.017,56.031-48.017
			c30.946,0,56.033,21.496,56.033,48.017c0,26.523-25.087,48.018-56.033,48.018C60.808,115.887,35.72,94.393,35.72,67.869z
			 M39.901,67.869c0-26.503,25.067-47.988,55.992-47.988s55.992,21.485,55.992,47.988c0,26.504-25.067,47.988-55.992,47.988
			S39.901,94.373,39.901,67.869z M44.083,67.869c0-26.489,25.05-47.958,55.952-47.958c30.903,0,55.953,21.47,55.953,47.958
			c0,26.488-25.05,47.961-55.953,47.961C69.133,115.83,44.083,94.357,44.083,67.869z M48.263,67.869
			c0-26.471,25.036-47.929,55.916-47.929c30.881,0,55.913,21.458,55.913,47.929c0,26.473-25.032,47.932-55.913,47.932
			C73.298,115.801,48.263,94.342,48.263,67.869z M52.445,67.869c0-26.451,25.017-47.897,55.875-47.897
			c30.859,0,55.875,21.446,55.875,47.897c0,26.453-25.016,47.898-55.875,47.898C77.462,115.768,52.445,94.322,52.445,67.869z
			 M56.627,67.869c0-26.438,25-47.867,55.837-47.867c30.839,0,55.837,21.429,55.837,47.867c0,26.439-24.999,47.869-55.837,47.869
			C81.628,115.738,56.627,94.309,56.627,67.869z M60.808,67.869c0-26.42,24.98-47.839,55.798-47.839
			c30.815,0,55.799,21.418,55.799,47.839c0,26.42-24.984,47.838-55.799,47.838C85.788,115.707,60.808,94.289,60.808,67.869z
			 M64.99,67.869c0-26.404,24.962-47.809,55.758-47.809c30.799,0,55.758,21.405,55.758,47.809c0,26.404-24.959,47.811-55.758,47.811
			C89.953,115.68,64.99,94.273,64.99,67.869z M69.171,67.869c0-26.387,24.946-47.775,55.722-47.775
			c30.773,0,55.717,21.388,55.717,47.775s-24.944,47.775-55.717,47.775C94.117,115.645,69.171,94.256,69.171,67.869z M73.349,67.869
			c0-26.372,24.929-47.747,55.681-47.747c30.754,0,55.684,21.375,55.684,47.747c0,26.373-24.93,47.748-55.684,47.748
			C98.278,115.617,73.349,94.242,73.349,67.869z M77.531,67.869c0-26.354,24.912-47.718,55.644-47.718
			c30.729,0,55.644,21.364,55.644,47.718c0,26.354-24.915,47.719-55.644,47.719C102.443,115.588,77.531,94.223,77.531,67.869z
			 M81.711,67.869c0-26.335,24.894-47.688,55.607-47.688c30.707,0,55.599,21.354,55.599,47.688
			c0,26.336-24.893,47.691-55.599,47.691C106.604,115.561,81.711,94.205,81.711,67.869z M85.89,67.869
			c0-26.32,24.879-47.656,55.565-47.656c30.689,0,55.564,21.336,55.564,47.656c0,26.322-24.875,47.656-55.564,47.656
			C110.769,115.525,85.89,94.191,85.89,67.869z M90.07,67.869c0-26.302,24.859-47.626,55.527-47.626
			c30.667,0,55.527,21.324,55.527,47.626c0,26.305-24.86,47.625-55.527,47.625C114.929,115.494,90.07,94.174,90.07,67.869z
			 M94.252,67.869c0-26.288,24.842-47.595,55.487-47.595c30.647,0,55.489,21.308,55.489,47.595
			c0,26.289-24.842,47.598-55.489,47.598C119.094,115.467,94.252,94.158,94.252,67.869z M98.431,67.869
			c0-26.269,24.824-47.567,55.449-47.567s55.451,21.299,55.451,47.567c0,26.27-24.826,47.568-55.451,47.568
			S98.431,94.139,98.431,67.869z M102.611,67.869c0-26.254,24.809-47.535,55.412-47.535c30.603,0,55.41,21.28,55.41,47.535
			c0,26.258-24.808,47.537-55.41,47.537C127.419,115.406,102.611,94.127,102.611,67.869z M106.794,67.869
			c0-26.237,24.791-47.506,55.371-47.506s55.371,21.269,55.371,47.506c0,26.238-24.791,47.506-55.371,47.506
			S106.794,94.107,106.794,67.869z M110.972,67.869c0-26.218,24.773-47.477,55.335-47.477c30.561,0,55.333,21.259,55.333,47.477
			c0,26.221-24.772,47.477-55.333,47.477C135.746,115.346,110.972,94.09,110.972,67.869z M115.156,67.869
			c0-26.204,24.754-47.443,55.294-47.443c30.537,0,55.296,21.24,55.296,47.443c0,26.203-24.759,47.449-55.296,47.449
			C139.91,115.318,115.156,94.072,115.156,67.869z M119.338,67.869c0-26.185,24.741-47.414,55.255-47.414
			c30.519,0,55.26,21.229,55.26,47.414c0,26.188-24.741,47.414-55.26,47.414C144.079,115.283,119.338,94.057,119.338,67.869z
			 M123.52,67.869c0-26.171,24.719-47.385,55.216-47.385c30.497,0,55.218,21.214,55.218,47.385
			c0,26.172-24.721,47.387-55.218,47.387C148.239,115.256,123.52,94.041,123.52,67.869z"/>
	</g>
	<path fill="#F78D1E" d="M4.476,102.602c0-14.996,14.164-27.151,31.64-27.151c17.473,0,31.64,12.155,31.64,27.151
		s-14.167,27.15-31.64,27.15C18.639,129.752,4.476,117.598,4.476,102.602"/>
	<g>
		<defs>
			<path id="SVGID_5_" d="M35.2,78.834c-11.743,0-21.438,6.67-24.82,13.242c-0.605,1.172-0.724,3.955,1.665,5.154
				c7.113,3.561,15.428,5.264,23.663,5.191h0.391c8.073,0.002,16.201-1.699,23.172-5.191c2.389-1.199,2.268-3.982,1.665-5.154
				c-3.382-6.572-13.081-13.242-24.819-13.242H35.2z"/>
		</defs>
		<clipPath id="SVGID_6_">
			<use xlink:href="#SVGID_5_"  overflow="visible"/>
		</clipPath>
		<polyline clip-path="url(#SVGID_6_)" fill="#FDC389" points="61.169,101.402 9.907,100.508 9.879,102.279 61.139,103.174 		"/>
		<polyline clip-path="url(#SVGID_6_)" fill="#FDC894" points="61.198,99.592 9.936,98.693 9.908,100.467 61.169,101.359 		"/>
		<polyline clip-path="url(#SVGID_6_)" fill="#FDCC9B" points="61.231,97.781 9.97,96.887 9.94,98.658 61.202,99.553 		"/>
		<polyline clip-path="url(#SVGID_6_)" fill="#FED1A5" points="61.26,95.969 9.999,95.074 9.969,96.846 61.231,97.742 		"/>
		<polyline clip-path="url(#SVGID_6_)" fill="#FED6AD" points="61.294,94.158 10.032,93.262 10.003,95.035 61.264,95.93 		"/>
		<polyline clip-path="url(#SVGID_6_)" fill="#FEDAB5" points="61.326,92.346 10.064,91.451 10.035,93.223 61.296,94.117 		"/>
		<polyline clip-path="url(#SVGID_6_)" fill="#FEDEBD" points="61.356,90.535 10.094,89.641 10.065,91.41 61.326,92.307 		"/>
		<polyline clip-path="url(#SVGID_6_)" fill="#FEE1C4" points="61.388,88.725 10.127,87.83 10.097,89.602 61.359,90.498 		"/>
		<polyline clip-path="url(#SVGID_6_)" fill="#FFE5CC" points="61.42,86.914 10.16,86.018 10.131,87.791 61.391,88.684 		"/>
		<polyline clip-path="url(#SVGID_6_)" fill="#FFE9D2" points="61.451,85.102 10.188,84.207 10.16,85.977 61.42,86.873 		"/>
		<polyline clip-path="url(#SVGID_6_)" fill="#FFECD8" points="61.483,83.289 10.221,82.395 10.193,84.166 61.455,85.061 		"/>
		<polyline clip-path="url(#SVGID_6_)" fill="#FFEEDE" points="61.517,81.48 10.255,80.588 10.225,82.357 61.487,83.254 		"/>
		<polyline clip-path="url(#SVGID_6_)" fill="#FFF1E3" points="61.545,79.67 10.284,78.773 10.254,80.547 61.515,81.441 		"/>
		<polyline clip-path="url(#SVGID_6_)" fill="#FFF1E3" points="61.549,79.633 10.269,78.738 10.257,79.414 61.539,80.309 		"/>
		<polyline clip-path="url(#SVGID_6_)" fill="#FFF1E3" points="61.561,78.914 10.28,78.018 10.269,78.695 61.549,79.59 		"/>
	</g>
	<g>
		<defs>
			<path id="SVGID_7_" d="M4.476,102.602c0,14.996,14.163,27.15,31.64,27.15c17.473,0,31.636-12.154,31.636-27.15
				S53.589,75.451,36.116,75.451C18.639,75.451,4.476,87.605,4.476,102.602"/>
		</defs>
		<clipPath id="SVGID_8_">
			<use xlink:href="#SVGID_7_"  overflow="visible"/>
		</clipPath>
		<path clip-path="url(#SVGID_8_)" fill="none" stroke="#FFFFFF" stroke-width="0.9716" stroke-miterlimit="3.864" d="
			M3.796,102.723c0-15.316,14.467-27.733,32.313-27.733s32.31,12.417,32.31,27.733s-14.464,27.729-32.31,27.729
			S3.796,118.039,3.796,102.723z M-0.245,102.723c0-15.303,14.448-27.7,32.276-27.7c17.825,0,32.272,12.397,32.272,27.7
			c0,15.299-14.448,27.699-32.272,27.699C14.204,130.422-0.245,118.021-0.245,102.723z M-4.285,102.723
			c0-15.283,14.434-27.67,32.235-27.67c17.808,0,32.24,12.387,32.24,27.67c0,15.281-14.433,27.668-32.24,27.668
			C10.149,130.391-4.285,118.004-4.285,102.723z M-8.325,102.723c0-15.264,14.416-27.639,32.199-27.639
			c17.784,0,32.203,12.375,32.203,27.639c0,15.262-14.418,27.633-32.203,27.633C6.091,130.355-8.325,117.984-8.325,102.723z
			 M-12.366,102.723c0-15.248,14.401-27.605,32.163-27.605c17.765,0,32.162,12.357,32.162,27.605
			c0,15.244-14.397,27.604-32.162,27.604C2.035,130.326-12.366,117.967-12.366,102.723z M-16.406,102.723
			c0-15.229,14.383-27.572,32.125-27.572c17.744,0,32.127,12.343,32.127,27.572c0,15.227-14.383,27.57-32.127,27.57
			C-2.023,130.293-16.406,117.949-16.406,102.723z M-20.446,102.723c0-15.213,14.368-27.542,32.089-27.542
			c17.721,0,32.089,12.329,32.089,27.542c0,15.209-14.369,27.539-32.089,27.539C-6.079,130.262-20.446,117.932-20.446,102.723z
			 M-24.487,102.723c0-15.193,14.35-27.511,32.053-27.511c17.701,0,32.053,12.318,32.053,27.511S25.267,130.23,7.566,130.23
			C-10.137,130.23-24.487,117.916-24.487,102.723z M-28.53,102.723c0-15.178,14.334-27.478,32.016-27.478
			c17.68,0,32.012,12.3,32.012,27.478c0,15.174-14.332,27.475-32.012,27.475C-14.196,130.197-28.53,117.896-28.53,102.723z
			 M-32.572,102.723c0-15.158,14.317-27.444,31.98-27.444c17.66,0,31.976,12.286,31.976,27.444
			c0,15.156-14.316,27.441-31.976,27.441C-18.254,130.164-32.572,117.879-32.572,102.723z M-36.612,102.723
			c0-15.141,14.298-27.416,31.94-27.416c17.641,0,31.943,12.275,31.943,27.416c0,15.137-14.302,27.412-31.943,27.412
			C-22.314,130.135-36.612,117.859-36.612,102.723z M-40.652,102.723c0-15.121,14.284-27.382,31.902-27.382
			c17.621,0,31.908,12.261,31.908,27.382c0,15.117-14.288,27.379-31.908,27.379C-26.368,130.102-40.652,117.84-40.652,102.723z
			 M-44.694,102.723c0-15.107,14.267-27.349,31.868-27.349s31.867,12.241,31.867,27.349c0,15.104-14.266,27.346-31.867,27.346
			S-44.694,117.826-44.694,102.723z M-48.734,102.723c0-15.09,14.252-27.317,31.831-27.317c17.58,0,31.831,12.227,31.831,27.317
			c0,15.088-14.251,27.313-31.831,27.313C-34.482,130.035-48.734,117.811-48.734,102.723z M-52.773,102.723
			c0-15.072,14.232-27.287,31.792-27.287c17.558,0,31.795,12.215,31.795,27.287c0,15.066-14.237,27.285-31.795,27.285
			C-38.541,130.008-52.773,117.789-52.773,102.723z M-56.814,102.723c0-15.053,14.218-27.253,31.757-27.253
			c17.54,0,31.754,12.2,31.754,27.253c0,15.049-14.214,27.252-31.754,27.252C-42.596,129.975-56.814,117.771-56.814,102.723z"/>
	</g>
</g>
</svg>
