<?xml version="1.0" encoding="utf-8"?>
<!-- Generator: Adobe Illustrator 16.0.0, SVG Export Plug-In . SVG Version: 6.00 Build 0)  -->
<!DOCTYPE svg PUBLIC "-//W3C//DTD SVG 1.1//EN" "http://www.w3.org/Graphics/SVG/1.1/DTD/svg11.dtd">
<svg version="1.1" id="Layer_1" xmlns="http://www.w3.org/2000/svg" xmlns:xlink="http://www.w3.org/1999/xlink" x="0px" y="0px"
	 width="300px" height="100px" viewBox="0 0 300 100" enable-background="new 0 0 300 100" xml:space="preserve">
<path display="none" fill="none" stroke="#FFFFFF" stroke-width="0.694" stroke-miterlimit="3.864" d="M11.412,87.874
	c-11.969,0-21.669-8.327-21.669-18.598c0-10.271,9.7-18.597,21.669-18.597c11.966,0,21.669,8.325,21.669,18.597
	C33.082,79.547,23.378,87.874,11.412,87.874"/>
<path display="none" fill="none" stroke="#FFFFFF" stroke-width="0.694" stroke-miterlimit="3.864" d="M8.633,87.852
	c-11.954,0-21.644-8.317-21.644-18.575s9.69-18.574,21.644-18.574c11.955,0,21.642,8.316,21.642,18.574S20.588,87.852,8.633,87.852"
	/>
<path display="none" fill="none" d="M50.327,87.699c11.909,0,21.562-8.284,21.562-18.505S62.236,50.69,50.327,50.69
	c-11.912,0-21.565,8.284-21.565,18.504"/>
<path display="none" fill="none" d="M28.762,69.194c0,10.221,9.653,18.505,21.565,18.505"/>
<g>
	<path fill="#F78D1E" d="M149.601,47.632h-7.186c-0.565,2.06-1.778,3.068-3.673,3.068c-1.252,0-2.181-0.403-2.786-1.21
		c-0.727-0.929-1.09-3.312-1.09-7.106c0-3.795,0.363-6.175,1.09-7.104c0.605-0.806,1.534-1.212,2.786-1.212
		c1.895,0,3.108,1.01,3.673,3.07h7.186c-0.485-2.949-1.695-5.249-3.593-6.905c-1.897-1.656-4.32-2.463-7.308-2.463
		c-3.189,0-5.854,1.091-7.992,3.229c-1.332,1.333-2.222,3.068-2.584,5.209c-0.202,1.21-0.323,3.269-0.323,6.175
		c0,2.908,0.122,4.965,0.323,6.177c0.363,2.139,1.252,3.875,2.584,5.206c2.138,2.142,4.803,3.229,7.992,3.229
		c2.988,0,5.451-0.807,7.348-2.462C147.945,52.881,149.116,50.578,149.601,47.632"/>
	<polygon fill="#F78D1E" points="172.431,56.756 172.431,50.458 160.359,50.458 160.359,28.012 153.296,28.012 153.296,56.756 	"/>
	<polygon fill="#F78D1E" points="196.066,56.756 196.066,50.458 183.593,50.458 183.593,45.412 194.252,45.412 194.252,39.114 
		183.593,39.114 183.593,34.309 196.066,34.309 196.066,28.012 176.529,28.012 176.529,56.756 	"/>
	<polygon fill="#F78D1E" points="222.412,28.012 215.064,28.012 210.302,44.08 205.456,28.012 198.15,28.012 207.638,56.755 
		212.886,56.755 	"/>
	<polygon fill="#F78D1E" points="244.846,56.756 244.846,50.458 232.372,50.458 232.372,45.412 243.031,45.412 243.031,39.114 
		232.372,39.114 232.372,34.309 244.846,34.309 244.846,28.012 225.309,28.012 225.309,56.756 	"/>
	<path fill="#F78D1E" d="M272.566,56.755l-6.219-11.988c3.108-1.577,4.685-4.08,4.685-7.51c0-2.786-0.93-5.004-2.826-6.701
		c-1.858-1.695-4.198-2.544-6.984-2.544h-11.384v28.743h7.064V46.057h2.383l5.087,10.698H272.566z M263.968,37.257
		c0,0.847-0.282,1.534-0.888,2.099c-0.608,0.526-1.332,0.807-2.181,0.807h-3.997v-5.811h3.997c0.849,0,1.572,0.281,2.181,0.846
		C263.686,35.723,263.968,36.411,263.968,37.257"/>
	<path fill="#848789" d="M139.581,75.566c0-1.258-0.391-2.306-1.195-3.008c-0.617-0.555-1.379-0.884-2.737-1.092l-1.669-0.245
		c-0.68-0.104-1.277-0.352-1.647-0.683c-0.391-0.349-0.556-0.822-0.556-1.357c0-1.3,0.946-2.288,2.676-2.288
		c1.236,0,2.287,0.27,3.192,1.133l1.421-1.398c-1.254-1.176-2.615-1.669-4.551-1.669c-3.048,0-4.903,1.75-4.903,4.306
		c0,1.192,0.352,2.121,1.071,2.801c0.64,0.598,1.589,1.009,2.782,1.172l1.73,0.249c0.866,0.123,1.235,0.268,1.606,0.618
		c0.391,0.349,0.577,0.884,0.577,1.523c0,1.423-1.113,2.246-3.027,2.246c-1.504,0-2.677-0.33-3.75-1.401l-1.484,1.462
		c1.402,1.421,2.988,1.937,5.191,1.937C137.377,79.871,139.581,78.266,139.581,75.566"/>
	<path fill="#848789" d="M157.284,72.414c0-2.821,0.04-4.449-1.398-5.892c-1.012-1.009-2.309-1.565-3.876-1.565
		c-1.565,0-2.84,0.557-3.851,1.565c-1.441,1.442-1.421,3.07-1.421,5.892c0,2.82-0.021,4.449,1.421,5.891
		c1.011,1.01,2.286,1.567,3.851,1.567c1.567,0,2.864-0.558,3.876-1.567C157.324,76.863,157.284,75.234,157.284,72.414
		 M155.061,72.414c0,2.945-0.144,3.771-0.866,4.552c-0.513,0.558-1.317,0.906-2.185,0.906c-0.862,0-1.667-0.349-2.182-0.906
		c-0.721-0.781-0.865-1.606-0.865-4.552c0-2.946,0.144-3.77,0.865-4.552c0.514-0.556,1.319-0.905,2.182-0.905
		c0.867,0,1.672,0.35,2.185,0.905C154.917,68.645,155.061,69.468,155.061,72.414"/>
	<polygon fill="#848789" points="174.582,79.746 174.582,77.75 167.518,77.75 167.518,65.081 165.292,65.081 165.292,79.746 	"/>
	<path fill="#848789" d="M191.69,74.805v-9.724h-2.224v9.621c0,1.957-1.215,3.172-3.051,3.172c-1.833,0-3.027-1.215-3.027-3.172
		v-9.621h-2.223v9.724c0,3.027,2.265,5.066,5.25,5.066C189.403,79.871,191.69,77.832,191.69,74.805"/>
	<polygon fill="#848789" points="209.002,67.081 209.002,65.084 198.704,65.084 198.704,67.081 202.74,67.081 202.74,79.749 
		204.966,79.749 204.966,67.081 	"/>
	<rect x="216.24" y="65.081" fill="#848789" width="2.225" height="14.665"/>
	<path fill="#848789" d="M237.016,72.414c0-2.821,0.042-4.449-1.399-5.892c-1.011-1.009-2.309-1.565-3.874-1.565
		c-1.563,0-2.841,0.557-3.85,1.565c-1.444,1.442-1.422,3.07-1.422,5.892c0,2.82-0.022,4.449,1.422,5.891
		c1.009,1.01,2.286,1.567,3.85,1.567c1.565,0,2.863-0.558,3.874-1.567C237.058,76.863,237.016,75.234,237.016,72.414
		 M234.792,72.414c0,2.945-0.145,3.771-0.867,4.552c-0.512,0.558-1.316,0.906-2.183,0.906c-0.864,0-1.669-0.349-2.184-0.906
		c-0.72-0.781-0.864-1.606-0.864-4.552c0-2.946,0.145-3.77,0.864-4.552c0.515-0.556,1.319-0.905,2.184-0.905
		c0.866,0,1.671,0.35,2.183,0.905C234.647,68.645,234.792,69.468,234.792,72.414"/>
	<polygon fill="#848789" points="256.061,79.746 256.061,65.081 253.834,65.081 253.834,75.38 247.06,65.081 245.021,65.081 
		245.021,79.746 247.244,79.746 247.244,69.426 254.021,79.746 	"/>
	<path fill="#848789" d="M273.767,75.566c0-1.258-0.391-2.306-1.195-3.008c-0.618-0.555-1.379-0.884-2.739-1.092l-1.668-0.245
		c-0.68-0.104-1.277-0.352-1.648-0.683c-0.392-0.349-0.555-0.822-0.555-1.357c0-1.3,0.945-2.288,2.677-2.288
		c1.235,0,2.284,0.27,3.194,1.133l1.419-1.398c-1.255-1.176-2.614-1.669-4.552-1.669c-3.047,0-4.902,1.75-4.902,4.306
		c0,1.192,0.352,2.121,1.071,2.801c0.64,0.598,1.585,1.009,2.78,1.172l1.73,0.249c0.866,0.123,1.234,0.268,1.606,0.618
		c0.393,0.349,0.577,0.884,0.577,1.523c0,1.423-1.113,2.246-3.027,2.246c-1.504,0-2.677-0.33-3.751-1.401l-1.48,1.462
		c1.399,1.421,2.985,1.937,5.188,1.937C271.563,79.871,273.767,78.266,273.767,75.566"/>
	
		<line fill="none" stroke="#848789" stroke-width="1.104" stroke-miterlimit="3.864" x1="127.757" y1="60.839" x2="272.87" y2="60.839"/>
	<g>
		<g>
			<defs>
				<rect id="SVGID_1_" x="-233.364" y="-2057.935" width="1179.625" height="2988.382"/>
			</defs>
			<clipPath id="SVGID_2_">
				<use xlink:href="#SVGID_1_"  overflow="visible"/>
			</clipPath>
			<path clip-path="url(#SVGID_2_)" fill="#848789" d="M24.581,70.566c0-12.258,11.351-22.191,25.351-22.191
				c14.002,0,25.353,9.933,25.353,22.191c0,12.255-11.351,22.189-25.353,22.189C35.932,92.756,24.581,82.821,24.581,70.566"/>
			<path clip-path="url(#SVGID_2_)" fill="#848789" d="M32.245,45.708c0-20.417,19.072-36.966,42.596-36.966
				c23.526,0,42.599,16.549,42.599,36.966S98.367,82.673,74.841,82.673C51.317,82.673,32.245,66.125,32.245,45.708"/>
			<path clip-path="url(#SVGID_2_)" fill="#F78D1E" d="M35.483,45.656c0-18.693,17.659-33.846,39.442-33.846
				c21.781,0,39.438,15.153,39.438,33.846c0,18.695-17.658,33.847-39.438,33.847C53.142,79.503,35.483,64.351,35.483,45.656"/>
		</g>
		<g>
			<defs>
				<path id="SVGID_3_" d="M74.925,16.029c-14.638,0-26.725,8.318-30.94,16.513c-0.752,1.461-0.903,4.929,2.077,6.422
					c8.69,4.354,18.822,6.479,28.881,6.472l0.493-0.004c10.26,0.096,20.627-2.028,29.493-6.468c2.981-1.494,2.829-4.961,2.078-6.422
					c-4.216-8.194-16.303-16.513-30.939-16.513H74.925z"/>
			</defs>
			<clipPath id="SVGID_4_">
				<use xlink:href="#SVGID_3_"  overflow="visible"/>
			</clipPath>
			<polyline clip-path="url(#SVGID_4_)" fill="#FDC389" points="107.623,43.83 43.721,44.944 43.744,46.257 107.646,45.142 			"/>
			<polyline clip-path="url(#SVGID_4_)" fill="#FDC68F" points="107.602,42.512 43.701,43.626 43.724,44.939 107.626,43.824 			"/>
			<polyline clip-path="url(#SVGID_4_)" fill="#FDC994" points="107.579,41.194 43.677,42.309 43.7,43.621 107.603,42.506 			"/>
			<polyline clip-path="url(#SVGID_4_)" fill="#FDCC9A" points="107.556,39.876 43.653,40.99 43.677,42.303 107.579,41.189 			"/>
			<polyline clip-path="url(#SVGID_4_)" fill="#FECE9E" points="107.532,38.559 43.63,39.673 43.653,40.985 107.556,39.872 			"/>
			<polyline clip-path="url(#SVGID_4_)" fill="#FED1A3" points="107.508,37.241 43.606,38.355 43.629,39.668 107.533,38.554 			"/>
			<polyline clip-path="url(#SVGID_4_)" fill="#FED3A8" points="107.485,35.923 43.583,37.038 43.606,38.35 107.508,37.236 			"/>
			<polyline clip-path="url(#SVGID_4_)" fill="#FED6AD" points="107.464,34.605 43.562,35.72 43.586,37.032 107.487,35.918 			"/>
			<polyline clip-path="url(#SVGID_4_)" fill="#FED8B2" points="107.44,33.288 43.539,34.402 43.562,35.714 107.464,34.6 			"/>
			<polyline clip-path="url(#SVGID_4_)" fill="#FEDBB7" points="107.418,31.97 43.515,33.084 43.539,34.396 107.44,33.282 			"/>
			<polyline clip-path="url(#SVGID_4_)" fill="#FEDDBB" points="107.395,30.649 43.492,31.764 43.515,33.076 107.418,31.962 			"/>
			<polyline clip-path="url(#SVGID_4_)" fill="#FEDFBF" points="107.37,29.332 43.468,30.446 43.491,31.758 107.395,30.645 			"/>
			<polyline clip-path="url(#SVGID_4_)" fill="#FEE1C4" points="107.35,28.014 43.447,29.128 43.47,30.44 107.372,29.327 			"/>
			<polyline clip-path="url(#SVGID_4_)" fill="#FEE3C8" points="107.325,26.696 43.424,27.811 43.447,29.123 107.35,28.008 			"/>
			<polyline clip-path="url(#SVGID_4_)" fill="#FFE5CC" points="107.303,25.378 43.4,26.494 43.423,27.805 107.325,26.691 			"/>
			<polyline clip-path="url(#SVGID_4_)" fill="#FFE7D0" points="107.279,24.06 43.377,25.175 43.4,26.487 107.303,25.374 			"/>
			<polyline clip-path="url(#SVGID_4_)" fill="#FFE9D3" points="107.256,22.742 43.354,23.857 43.377,25.17 107.279,24.056 			"/>
			<polyline clip-path="url(#SVGID_4_)" fill="#FFEBD6" points="107.231,21.425 43.33,22.54 43.353,23.852 107.257,22.738 			"/>
			<polyline clip-path="url(#SVGID_4_)" fill="#FFECDA" points="107.211,20.107 43.309,21.222 43.332,22.535 107.234,21.42 			"/>
			<polyline clip-path="url(#SVGID_4_)" fill="#FFEEDD" points="107.188,18.79 43.285,19.904 43.309,21.216 107.211,20.102 			"/>
			<polyline clip-path="url(#SVGID_4_)" fill="#FFEFE0" points="107.164,17.472 43.262,18.586 43.285,19.898 107.188,18.784 			"/>
			<polyline clip-path="url(#SVGID_4_)" fill="#FFF1E3" points="107.142,16.154 43.239,17.268 43.261,18.581 107.164,17.466 			"/>
			<polyline clip-path="url(#SVGID_4_)" fill="#FFF1E3" points="107.138,15.935 43.246,17.049 43.259,17.736 107.151,16.622 			"/>
			<polyline clip-path="url(#SVGID_4_)" fill="#FFF1E3" points="107.125,15.22 43.233,16.334 43.247,17.021 107.138,15.907 			"/>
		</g>
		<g>
			<defs>
				<path id="SVGID_5_" d="M35.484,45.656c0,18.695,17.657,33.848,39.441,33.848c21.782,0,39.44-15.153,39.44-33.848
					c0-18.691-17.658-33.846-39.44-33.846C53.141,11.81,35.484,26.965,35.484,45.656"/>
			</defs>
			<clipPath id="SVGID_6_">
				<use xlink:href="#SVGID_5_"  overflow="visible"/>
			</clipPath>
			<path clip-path="url(#SVGID_6_)" fill="none" stroke="#FFFFFF" stroke-width="0.694" stroke-miterlimit="3.864" d="
				M34.761,45.656c0-19.002,17.979-34.408,40.158-34.408s40.163,15.406,40.163,34.408c0,19.002-17.983,34.409-40.163,34.409
				S34.761,64.658,34.761,45.656z M37.746,45.656c0-18.99,17.968-34.384,40.133-34.384c22.165,0,40.132,15.394,40.132,34.384
				c0,18.992-17.967,34.385-40.132,34.385C55.714,80.041,37.746,64.647,37.746,45.656z M40.731,45.656
				c0-18.978,17.956-34.362,40.104-34.362c22.149,0,40.105,15.385,40.105,34.362c0,18.979-17.956,34.364-40.105,34.364
				C58.687,80.02,40.731,64.635,40.731,45.656z M43.716,45.656c0-18.967,17.942-34.342,40.078-34.342
				c22.133,0,40.075,15.375,40.075,34.342s-17.942,34.342-40.075,34.342C61.659,79.998,43.716,64.623,43.716,45.656z M46.704,45.656
				c0-18.955,17.929-34.321,40.05-34.321c22.12,0,40.049,15.367,40.049,34.321c0,18.956-17.93,34.323-40.049,34.323
				C64.633,79.979,46.704,64.611,46.704,45.656z M49.688,45.656c0-18.943,17.92-34.297,40.022-34.297
				c22.104,0,40.023,15.354,40.023,34.297c0,18.946-17.919,34.298-40.023,34.298C67.608,79.954,49.688,64.602,49.688,45.656z
				 M52.674,45.656c0-18.931,17.905-34.277,39.995-34.277c22.089,0,39.994,15.347,39.994,34.277
				c0,18.932-17.905,34.278-39.994,34.278C70.58,79.934,52.674,64.588,52.674,45.656z M55.662,45.656
				c0-18.92,17.893-34.256,39.966-34.256c22.074,0,39.966,15.335,39.966,34.256s-17.893,34.257-39.966,34.257
				C73.555,79.913,55.662,64.576,55.662,45.656z M58.647,45.656c0-18.908,17.883-34.235,39.94-34.235
				c22.058,0,39.938,15.327,39.938,34.235c0,18.909-17.88,34.237-39.938,34.237C76.53,79.893,58.647,64.564,58.647,45.656z
				 M61.635,45.656c0-18.894,17.869-34.212,39.911-34.212s39.91,15.318,39.91,34.212c0,18.895-17.868,34.213-39.91,34.213
				S61.635,64.551,61.635,45.656z M64.622,45.656c0-18.884,17.857-34.19,39.883-34.19c22.028,0,39.884,15.307,39.884,34.19
				c0,18.885-17.856,34.192-39.884,34.192C82.479,79.848,64.622,64.541,64.622,45.656z M67.608,45.656
				c0-18.872,17.843-34.17,39.856-34.17c22.011,0,39.856,15.299,39.856,34.17s-17.846,34.17-39.856,34.17
				C85.451,79.826,67.608,64.527,67.608,45.656z M70.595,45.656c0-18.86,17.831-34.149,39.828-34.149
				c21.999,0,39.827,15.289,39.827,34.149c0,18.861-17.828,34.15-39.827,34.15C88.426,79.806,70.595,64.517,70.595,45.656z
				 M73.582,45.656c0-18.848,17.818-34.125,39.801-34.125c21.98,0,39.798,15.277,39.798,34.125
				c0,18.848-17.817,34.125-39.798,34.125C91.4,79.781,73.582,64.504,73.582,45.656z M76.566,45.656
				c0-18.837,17.806-34.104,39.772-34.104c21.968,0,39.774,15.268,39.774,34.104c0,18.838-17.807,34.106-39.774,34.106
				C94.372,79.762,76.566,64.494,76.566,45.656z M79.553,45.656c0-18.824,17.794-34.084,39.746-34.084
				c21.949,0,39.746,15.26,39.746,34.084c0,18.825-17.797,34.084-39.746,34.084C97.348,79.74,79.553,64.48,79.553,45.656z
				 M82.539,45.656c0-18.811,17.781-34.063,39.719-34.063c21.934,0,39.714,15.252,39.714,34.063
				c0,18.811-17.78,34.065-39.714,34.065C100.32,79.721,82.539,64.467,82.539,45.656z M85.523,45.656
				c0-18.8,17.771-34.04,39.689-34.04c21.921,0,39.688,15.24,39.688,34.04c0,18.801-17.768,34.041-39.688,34.041
				C103.294,79.696,85.523,64.457,85.523,45.656z M88.509,45.656c0-18.787,17.756-34.019,39.663-34.019
				c21.904,0,39.662,15.231,39.662,34.019c0,18.789-17.758,34.018-39.662,34.018C106.266,79.674,88.509,64.444,88.509,45.656z
				 M91.497,45.656c0-18.777,17.744-33.997,39.634-33.997c21.891,0,39.635,15.22,39.635,33.997
				c0,18.778-17.744,33.999-39.635,33.999C109.241,79.654,91.497,64.434,91.497,45.656z M94.481,45.656
				c0-18.763,17.731-33.977,39.606-33.977s39.608,15.213,39.608,33.977c0,18.764-17.733,33.977-39.608,33.977
				S94.481,64.42,94.481,45.656z M97.467,45.656c0-18.753,17.72-33.953,39.58-33.953s39.579,15.2,39.579,33.953
				c0,18.755-17.72,33.955-39.579,33.955S97.467,64.411,97.467,45.656z M100.456,45.656c0-18.741,17.708-33.933,39.55-33.933
				s39.551,15.192,39.551,33.933c0,18.742-17.708,33.933-39.551,33.933S100.456,64.397,100.456,45.656z M103.439,45.656
				c0-18.727,17.695-33.912,39.525-33.912c21.829,0,39.523,15.185,39.523,33.912c0,18.729-17.694,33.913-39.523,33.913
				C121.135,79.568,103.439,64.385,103.439,45.656z M106.428,45.656c0-18.717,17.682-33.888,39.496-33.888
				c21.813,0,39.497,15.171,39.497,33.888c0,18.717-17.685,33.892-39.497,33.892C124.109,79.548,106.428,64.373,106.428,45.656z
				 M109.415,45.656c0-18.703,17.672-33.867,39.468-33.867c21.799,0,39.472,15.164,39.472,33.867
				c0,18.706-17.673,33.868-39.472,33.868C127.087,79.523,109.415,64.361,109.415,45.656z M112.402,45.656
				c0-18.693,17.656-33.846,39.44-33.846c21.783,0,39.441,15.153,39.441,33.846c0,18.695-17.658,33.847-39.441,33.847
				C130.059,79.503,112.402,64.351,112.402,45.656z"/>
		</g>
		<g>
			<defs>
				<rect id="SVGID_7_" x="-233.364" y="-2057.935" width="1179.625" height="2988.382"/>
			</defs>
			<clipPath id="SVGID_8_">
				<use xlink:href="#SVGID_7_"  overflow="visible"/>
			</clipPath>
			<path clip-path="url(#SVGID_8_)" fill="#F78D1E" d="M27.371,70.465c0-10.712,10.117-19.394,22.6-19.394
				c12.481,0,22.6,8.682,22.6,19.394c0,10.711-10.119,19.393-22.6,19.393C37.487,89.857,27.371,81.176,27.371,70.465"/>
		</g>
		<g>
			<defs>
				<path id="SVGID_9_" d="M49.316,53.488c-8.388,0-15.313,4.764-17.729,9.459c-0.432,0.836-0.517,2.824,1.189,3.682
					c5.081,2.543,11.02,3.76,16.902,3.707h0.279c5.767,0.002,11.572-1.214,16.552-3.707c1.707-0.857,1.62-2.846,1.189-3.682
					c-2.416-4.695-9.343-9.459-17.728-9.459H49.316z"/>
			</defs>
			<clipPath id="SVGID_10_">
				<use xlink:href="#SVGID_9_"  overflow="visible"/>
			</clipPath>
			<polyline clip-path="url(#SVGID_10_)" fill="#FDC389" points="67.866,69.608 31.25,68.969 31.23,70.234 67.845,70.873 			"/>
			<polyline clip-path="url(#SVGID_10_)" fill="#FDC894" points="67.887,68.314 31.271,67.674 31.251,68.94 67.866,69.578 			"/>
			<polyline clip-path="url(#SVGID_10_)" fill="#FDCC9B" points="67.911,67.021 31.295,66.383 31.274,67.647 67.889,68.287 			"/>
			<polyline clip-path="url(#SVGID_10_)" fill="#FED1A5" points="67.931,65.728 31.316,65.088 31.294,66.354 67.911,66.993 			"/>
			<polyline clip-path="url(#SVGID_10_)" fill="#FED6AD" points="67.955,64.434 31.339,63.794 31.319,65.061 67.934,65.699 			"/>
			<polyline clip-path="url(#SVGID_10_)" fill="#FEDAB5" points="67.978,63.139 31.363,62.5 31.341,63.766 67.957,64.404 			"/>
			<polyline clip-path="url(#SVGID_10_)" fill="#FEDEBD" points="68,61.846 31.384,61.207 31.363,62.471 67.978,63.111 			"/>
			<polyline clip-path="url(#SVGID_10_)" fill="#FEE1C4" points="68.022,60.553 31.407,59.913 31.386,61.18 68.001,61.819 			"/>
			<polyline clip-path="url(#SVGID_10_)" fill="#FFE5CC" points="68.045,59.26 31.431,58.619 31.41,59.886 68.024,60.523 			"/>
			<polyline clip-path="url(#SVGID_10_)" fill="#FFE9D2" points="68.067,57.965 31.451,57.326 31.431,58.59 68.045,59.23 			"/>
			<polyline clip-path="url(#SVGID_10_)" fill="#FFECD8" points="68.09,56.67 31.475,56.031 31.455,57.297 68.07,57.936 			"/>
			<polyline clip-path="url(#SVGID_10_)" fill="#FFEEDE" points="68.114,55.379 31.499,54.74 31.478,56.005 68.093,56.645 			"/>
			<polyline clip-path="url(#SVGID_10_)" fill="#FFF1E3" points="68.135,54.085 31.52,53.445 31.498,54.711 68.113,55.351 			"/>
			<polyline clip-path="url(#SVGID_10_)" fill="#FFF1E3" points="68.138,54.059 31.508,53.42 31.5,53.902 68.13,54.541 			"/>
			<polyline clip-path="url(#SVGID_10_)" fill="#FFF1E3" points="68.146,53.545 31.517,52.904 31.508,53.389 68.138,54.027 			"/>
		</g>
		<g>
			<defs>
				<path id="SVGID_11_" d="M27.371,70.465c0,10.711,10.116,19.393,22.6,19.393c12.48,0,22.597-8.682,22.597-19.393
					c0-10.712-10.116-19.394-22.597-19.394C37.487,51.071,27.371,59.753,27.371,70.465"/>
			</defs>
			<clipPath id="SVGID_12_">
				<use xlink:href="#SVGID_11_"  overflow="visible"/>
			</clipPath>
			<path clip-path="url(#SVGID_12_)" fill="none" stroke="#FFFFFF" stroke-width="0.694" stroke-miterlimit="3.864" d="
				M26.885,70.551c0-10.939,10.333-19.809,23.081-19.809s23.078,8.87,23.078,19.809c0,10.941-10.331,19.807-23.078,19.807
				S26.885,81.492,26.885,70.551z M23.999,70.551c0-10.93,10.32-19.785,23.055-19.785c12.732,0,23.052,8.855,23.052,19.785
				c0,10.928-10.32,19.785-23.052,19.785C34.319,90.336,23.999,81.479,23.999,70.551z M21.113,70.551
				c0-10.916,10.31-19.764,23.025-19.764c12.72,0,23.029,8.848,23.029,19.764S56.858,90.313,44.138,90.313
				C31.423,90.313,21.113,81.467,21.113,70.551z M18.227,70.551c0-10.902,10.297-19.742,23-19.742
				c12.703,0,23.002,8.839,23.002,19.742S53.93,90.289,41.227,90.289C28.524,90.289,18.227,81.453,18.227,70.551z M15.341,70.551
				c0-10.891,10.286-19.718,22.974-19.718c12.689,0,22.973,8.827,22.973,19.718c0,10.889-10.284,19.717-22.973,19.717
				C25.627,90.268,15.341,81.439,15.341,70.551z M12.455,70.551c0-10.877,10.273-19.694,22.947-19.694
				c12.674,0,22.948,8.817,22.948,19.694c0,10.876-10.273,19.693-22.948,19.693C22.729,90.244,12.455,81.427,12.455,70.551z
				 M9.569,70.551c0-10.866,10.263-19.672,22.921-19.672c12.658,0,22.921,8.806,22.921,19.672c0,10.864-10.263,19.672-22.921,19.672
				C19.832,90.223,9.569,81.415,9.569,70.551z M6.683,70.551c0-10.853,10.25-19.65,22.895-19.65c12.643,0,22.895,8.798,22.895,19.65
				S42.221,90.199,29.578,90.199C16.933,90.199,6.683,81.403,6.683,70.551z M3.795,70.551c0-10.841,10.239-19.626,22.869-19.626
				c12.629,0,22.866,8.786,22.866,19.626c0,10.839-10.237,19.625-22.866,19.625C14.034,90.176,3.795,81.39,3.795,70.551z
				 M0.908,70.551c0-10.827,10.227-19.603,22.843-19.603c12.614,0,22.84,8.775,22.84,19.603c0,10.826-10.226,19.602-22.84,19.602
				C11.135,90.152,0.908,81.377,0.908,70.551z M-1.978,70.551c0-10.814,10.213-19.582,22.814-19.582
				c12.601,0,22.816,8.768,22.816,19.582c0,10.813-10.216,19.581-22.816,19.581C8.235,90.132-1.978,81.363-1.978,70.551z
				 M-4.864,70.551c0-10.801,10.203-19.558,22.788-19.558c12.586,0,22.792,8.757,22.792,19.558
				c0,10.799-10.206,19.557-22.792,19.557C5.339,90.107-4.864,81.35-4.864,70.551z M-7.75,70.551
				c0-10.791,10.19-19.534,22.763-19.534s22.762,8.743,22.762,19.534c0,10.789-10.19,19.533-22.762,19.533S-7.75,81.34-7.75,70.551z
				 M-10.636,70.551c0-10.777,10.18-19.512,22.736-19.512c12.557,0,22.736,8.734,22.736,19.512S24.657,90.061,12.1,90.061
				C-0.456,90.061-10.636,81.328-10.636,70.551z M-13.521,70.551c0-10.766,10.166-19.49,22.709-19.49
				c12.541,0,22.71,8.725,22.71,19.49c0,10.763-10.169,19.49-22.71,19.49C-3.355,90.041-13.521,81.313-13.521,70.551z
				 M-16.408,70.551c0-10.752,10.156-19.466,22.684-19.466c12.528,0,22.681,8.714,22.681,19.466
				c0,10.75-10.153,19.466-22.681,19.466C-6.252,90.017-16.408,81.301-16.408,70.551z"/>
		</g>
	</g>
</g>
</svg>
