<?xml version="1.0" encoding="utf-8"?>
<!-- Generator: Adobe Illustrator 16.0.0, SVG Export Plug-In . SVG Version: 6.00 Build 0)  -->
<!DOCTYPE svg PUBLIC "-//W3C//DTD SVG 1.1//EN" "http://www.w3.org/Graphics/SVG/1.1/DTD/svg11.dtd">
<svg version="1.1" id="Layer_1" xmlns="http://www.w3.org/2000/svg" xmlns:xlink="http://www.w3.org/1999/xlink" x="0px" y="0px"
	 width="250px" height="250px" viewBox="0 0 250 250" enable-background="new 0 0 250 250" xml:space="preserve">
<circle fill="#61A043" cx="125" cy="125" r="114.591"/>
<g display="none">
	<path display="inline" fill="#61A043" d="M113.861,65.814h22.547v11.272h-22.547V65.814z M144.859,77.089V57.36h-39.458v19.729
		H77.221V91.18h95.825V77.089H144.859z M108.223,108.093h33.819v8.452h-33.819V108.093z M80.361,192.641h88.502l3.402-95.822H76.955
		L80.361,192.641z"/>
	<g display="inline">
		<path fill="#FFFFFF" d="M157.299,163.609c-1.486,1.815-3.732,2.896-6.113,2.873c0,0-15.223,0-15.223,0.004l0.008-4.504
			c0-0.701-0.355-0.826-0.779-0.273c-1.969,2.55-6.996,9.35-6.996,12.473c0,3.127,5.027,9.924,6.996,12.475
			c0.424,0.548,0.779,0.428,0.779-0.274l-0.008-4.489h7.758c1.871,0.012,3.69-0.949,4.691-2.682l8.973-15.544
			C157.732,163.063,157.741,163.07,157.299,163.609"/>
		<path fill="#FFFFFF" d="M148.037,131.547l-3.891,2.254c0.006,0-1.945-3.4-2.723-4.75c-1.104-1.895-3.124-3.089-5.318-3.082
			c-2.193,0.006-4.224,1.208-5.297,3.112c-0.004,0.004-1.789,3.077-3.586,6.202l3.625,6.271l-3.938,2.204
			c-0.612,0.345-0.546,0.709,0.146,0.804c3.192,0.428,11.596,1.373,14.299-0.188c2.709-1.563,6.088-9.307,7.308-12.291
			C148.927,131.439,148.641,131.199,148.037,131.547"/>
		<path fill="#FFFFFF" d="M93.08,163.085l8.976,15.551c0.345,0.601,0.337,0.601,0.086-0.052c-0.826-2.191-0.638-4.682,0.57-6.736
			l7.611-13.182l3.904,2.262c0.601,0.35,0.885,0.104,0.623-0.539c-1.223-2.982-4.599-10.731-7.307-12.291
			c-2.708-1.562-11.11-0.613-14.299-0.182c-0.694,0.09-0.761,0.465-0.154,0.811l3.897,2.239l-3.882,6.722
			C92.157,159.296,92.078,161.355,93.08,163.085"/>
		<path fill="#FFFFFF" d="M107.6,166.646c-1.797,3.125-3.579,6.205-3.583,6.209c-1.11,1.891-1.121,4.246-0.022,6.146
			c1.096,1.898,3.14,3.072,5.334,3.057h7.509c3.488,0,6.317-2.83,6.317-6.318v-2.771c0-3.488-2.825-6.32-6.317-6.32H107.6V166.646z"
			/>
		<path fill="#FFFFFF" d="M116.939,124.393c-2.002,0-3.687,1.125-4.666,2.718c-0.889,1.449-3.087,5.255-4.966,8.537
			c-1.737,3.026-0.683,6.9,2.34,8.646l2.446,1.414c3.023,1.744,6.883,0.705,8.627-2.317c3.118-5.391,7.565-13.111,8.728-15.104
			c1.192-2.06,3.159-3.423,5.442-3.792c0.688-0.11,0.693-0.099-0.002-0.099h-17.95V124.393z"/>
		<path fill="#FFFFFF" d="M144.328,146.844l-2.396,1.381c-3.022,1.748-4.059,5.61-2.312,8.633l4.614,7.998c3.606,0,7.16,0,7.164,0
			c2.197,0.016,4.244-1.158,5.345-3.054c1.092-1.897,1.08-4.257-0.034-6.147c0-0.004-1.702-2.959-3.751-6.5
			C151.215,146.131,147.348,145.1,144.328,146.844"/>
	</g>
</g>
<g display="none">
	<polygon display="inline" fill="#61A043" points="83.783,109.031 166.221,109.031 166.221,189.588 189.406,189.588 189.406,90.485 
		123.166,60.412 60.593,90.485 60.593,189.588 83.783,189.588 	"/>
	<rect x="108.539" y="173.876" display="inline" fill="#61A043" width="14.626" height="12.62"/>
	<rect x="126.492" y="173.876" display="inline" fill="#61A043" width="14.626" height="12.62"/>
	<rect x="90.586" y="173.876" display="inline" fill="#61A043" width="14.629" height="12.62"/>
	<rect x="108.539" y="156.57" display="inline" fill="#61A043" width="14.626" height="12.617"/>
	<rect x="90.586" y="156.57" display="inline" fill="#61A043" width="14.629" height="12.617"/>
	<rect x="126.492" y="156.57" display="inline" fill="#61A043" width="14.626" height="12.617"/>
	<rect x="108.539" y="139.268" display="inline" fill="#61A043" width="14.626" height="12.615"/>
	<rect x="90.586" y="139.268" display="inline" fill="#61A043" width="14.629" height="12.615"/>
	<rect x="144.441" y="173.876" display="inline" fill="#61A043" width="14.627" height="12.62"/>
	<path display="inline" fill="#FFFFFF" d="M141.807,93.983c-0.854,1.047-2.154,1.671-3.527,1.659c0,0-8.785,0-8.785,0.002
		l0.004-2.602c0-0.403-0.204-0.476-0.448-0.157c-1.141,1.472-4.038,5.394-4.038,7.2c0,1.803,2.897,5.726,4.038,7.2
		c0.244,0.316,0.448,0.244,0.448-0.157l-0.004-2.593h4.477c1.081,0.011,2.131-0.546,2.711-1.546l5.178-8.974
		C142.059,93.665,142.063,93.671,141.807,93.983"/>
	<path display="inline" fill="#FFFFFF" d="M136.463,75.479l-2.245,1.302c0,0-1.122-1.966-1.573-2.744
		c-0.636-1.092-1.805-1.782-3.067-1.778c-1.267,0.002-2.437,0.697-3.06,1.796c-0.002,0.002-1.033,1.776-2.068,3.582l2.09,3.617
		l-2.272,1.276c-0.349,0.195-0.313,0.405,0.085,0.458c1.845,0.249,6.692,0.794,8.255-0.108c1.561-0.899,3.511-5.37,4.218-7.092
		C136.979,75.417,136.813,75.274,136.463,75.479"/>
	<path display="inline" fill="#FFFFFF" d="M134.32,84.305l-1.383,0.799c-1.744,1.011-2.344,3.238-1.334,4.982l2.666,4.615
		c2.078,0,4.133,0,4.135,0c1.268,0.011,2.449-0.667,3.084-1.76c0.63-1.096,0.623-2.458-0.021-3.549c0-0.002-0.983-1.708-2.163-3.753
		C138.293,83.895,136.064,83.298,134.32,84.305"/>
	<path display="inline" fill="#FFFFFF" d="M104.741,93.682l5.18,8.973c0.202,0.351,0.196,0.351,0.052-0.025
		c-0.478-1.268-0.37-2.704,0.329-3.891l4.393-7.61l2.251,1.306c0.351,0.204,0.514,0.062,0.361-0.31
		c-0.705-1.722-2.655-6.193-4.216-7.096c-1.565-0.9-6.412-0.353-8.253-0.104c-0.401,0.056-0.439,0.268-0.089,0.467l2.25,1.293
		l-2.241,3.88C104.21,91.494,104.164,92.681,104.741,93.682"/>
	<path display="inline" fill="#FFFFFF" d="M113.122,95.738c-1.039,1.803-2.066,3.581-2.069,3.585
		c-0.639,1.089-0.647,2.448-0.012,3.544c0.633,1.096,1.813,1.775,3.079,1.763h4.333c2.016,0,3.647-1.631,3.647-3.645v-1.601
		c0-2.014-1.631-3.646-3.645-3.646H113.122z"/>
	<path display="inline" fill="#FFFFFF" d="M118.512,71.348c-1.155,0-2.13,0.65-2.691,1.569c-0.516,0.837-1.784,3.033-2.869,4.928
		c-1,1.746-0.393,3.982,1.351,4.988l1.415,0.816c1.744,1.006,3.974,0.41,4.979-1.336c1.796-3.114,4.367-7.567,5.036-8.72
		c0.69-1.188,1.822-1.976,3.142-2.188c0.396-0.064,0.399-0.058-0.003-0.058L118.512,71.348L118.512,71.348z"/>
</g>
<path fill="#FFFFFF" d="M181.779,67.495c-0.055-0.935-0.828-1.664-1.766-1.664h-25.418c-0.938,0-1.714,0.729-1.77,1.664
	l-2.889,47.537h-7.764V93.559c0-0.638-0.342-1.226-0.896-1.541c-0.553-0.315-1.23-0.307-1.779,0.02l-33.559,19.968V93.559
	c0-0.63-0.333-1.214-0.876-1.529c-0.544-0.319-1.215-0.323-1.764-0.014l-41.156,23.243c-0.558,0.313-0.901,0.903-0.901,1.543v65.595
	c0,0.98,0.793,1.771,1.771,1.771h123.973c0.488,0,0.955-0.197,1.289-0.557c0.334-0.354,0.508-0.834,0.478-1.319L181.779,67.495z
	 M146.234,142.248c1.68,2.902,3.078,5.327,3.078,5.327c0.912,1.553,0.924,3.489,0.024,5.043c-0.901,1.557-2.578,2.518-4.381,2.506
	c-0.002,0-2.919,0-5.876,0l-3.785-6.562c-1.434-2.475-0.583-5.646,1.895-7.073l1.967-1.138
	C141.634,138.92,144.803,139.768,146.234,142.248z M108.796,131.168c1.542-2.689,3.341-5.811,4.074-7
	c0.799-1.305,2.182-2.229,3.823-2.229h14.721c0.572,0,0.568-0.009,0.004,0.082c-1.874,0.3-3.484,1.42-4.464,3.107
	c-0.951,1.638-4.604,7.966-7.156,12.392c-1.43,2.478-4.597,3.33-7.075,1.898l-2.009-1.16
	C108.235,136.826,107.374,133.65,108.796,131.168z M104.561,166.385c0.203,0.533,0.211,0.533-0.074,0.039l-7.362-12.752
	c-0.819-1.421-0.756-3.105,0.023-4.427l3.186-5.515l-3.2-1.836c-0.497-0.285-0.441-0.588,0.127-0.662
	c2.619-0.354,9.508-1.133,11.729,0.147c2.219,1.28,4.99,7.636,5.992,10.082c0.217,0.529-0.019,0.728-0.513,0.44l-3.2-1.854
	l-6.242,10.811C104.035,162.544,103.881,164.587,104.561,166.385z M121.791,164.05c0,2.861-2.319,5.185-5.182,5.185h-6.158
	c-1.797,0.011-3.475-0.95-4.373-2.512c-0.902-1.556-0.893-3.486,0.02-5.035c0.002-0.008,1.46-2.529,2.937-5.094h7.576
	c2.861,0,5.18,2.32,5.18,5.18V164.05z M124.871,137.824l3.227-1.811l-2.967-5.141c1.471-2.564,2.934-5.085,2.938-5.089
	c0.884-1.564,2.548-2.549,4.346-2.549c1.798-0.008,3.457,0.971,4.361,2.524c0.638,1.105,2.238,3.896,2.236,3.896l3.188-1.848
	c0.496-0.289,0.73-0.09,0.513,0.444c-1.004,2.444-3.774,8.795-5.991,10.075c-2.221,1.283-9.111,0.505-11.729,0.15
	C124.425,138.404,124.373,138.104,124.871,137.824z M149.863,154.146l-7.356,12.752c-0.821,1.42-2.313,2.205-3.851,2.197h-6.36
	l0.006,3.682c0,0.572-0.29,0.674-0.64,0.223c-1.617-2.09-5.734-7.666-5.734-10.227c0-2.564,4.117-8.141,5.734-10.234
	c0.35-0.451,0.64-0.346,0.64,0.227l-0.006,3.696c0-0.004,12.483-0.004,12.483-0.004c1.951,0.021,3.796-0.868,5.015-2.358
	C150.157,153.656,150.15,153.652,149.863,154.146z"/>
</svg>
