<?xml version="1.0" encoding="utf-8"?>
<!-- Generator: Adobe Illustrator 16.0.0, SVG Export Plug-In . SVG Version: 6.00 Build 0)  -->
<!DOCTYPE svg PUBLIC "-//W3C//DTD SVG 1.1//EN" "http://www.w3.org/Graphics/SVG/1.1/DTD/svg11.dtd">
<svg version="1.1" id="Layer_1" xmlns="http://www.w3.org/2000/svg" xmlns:xlink="http://www.w3.org/1999/xlink" x="0px" y="0px"
	 width="250px" height="250px" viewBox="0 0 250 250" enable-background="new 0 0 250 250" xml:space="preserve">
<circle fill="#61A043" cx="125" cy="125" r="114.591"/>
<g display="none">
	<path display="inline" fill="#61A043" d="M113.861,65.814h22.547v11.272h-22.547V65.814z M144.859,77.089V57.36h-39.458v19.729
		H77.221V91.18h95.825V77.089H144.859z M108.223,108.093h33.819v8.452h-33.819V108.093z M80.361,192.641h88.502l3.402-95.822H76.955
		L80.361,192.641z"/>
	<g display="inline">
		<path fill="#FFFFFF" d="M157.299,163.609c-1.486,1.815-3.732,2.896-6.113,2.873c0,0-15.223,0-15.223,0.004l0.008-4.504
			c0-0.701-0.355-0.826-0.779-0.273c-1.969,2.55-6.996,9.35-6.996,12.473c0,3.127,5.027,9.924,6.996,12.475
			c0.424,0.548,0.779,0.428,0.779-0.274l-0.008-4.489h7.758c1.871,0.012,3.69-0.949,4.691-2.682l8.973-15.544
			C157.732,163.063,157.741,163.07,157.299,163.609"/>
		<path fill="#FFFFFF" d="M148.037,131.547l-3.891,2.254c0.006,0-1.945-3.4-2.723-4.75c-1.104-1.895-3.124-3.089-5.318-3.082
			c-2.193,0.006-4.224,1.208-5.297,3.112c-0.004,0.004-1.789,3.077-3.586,6.202l3.625,6.271l-3.938,2.204
			c-0.612,0.345-0.546,0.709,0.146,0.804c3.192,0.428,11.596,1.373,14.299-0.188c2.709-1.563,6.088-9.307,7.308-12.291
			C148.927,131.439,148.641,131.199,148.037,131.547"/>
		<path fill="#FFFFFF" d="M93.08,163.085l8.976,15.551c0.345,0.601,0.337,0.601,0.086-0.052c-0.826-2.191-0.638-4.682,0.57-6.736
			l7.611-13.182l3.904,2.262c0.601,0.35,0.885,0.104,0.623-0.539c-1.223-2.982-4.599-10.731-7.307-12.291
			c-2.708-1.562-11.11-0.613-14.299-0.182c-0.694,0.09-0.761,0.465-0.154,0.811l3.897,2.239l-3.882,6.722
			C92.157,159.296,92.078,161.355,93.08,163.085"/>
		<path fill="#FFFFFF" d="M107.6,166.646c-1.797,3.125-3.579,6.205-3.583,6.209c-1.11,1.891-1.121,4.246-0.022,6.146
			c1.096,1.898,3.14,3.072,5.334,3.057h7.509c3.488,0,6.317-2.83,6.317-6.318v-2.771c0-3.488-2.825-6.32-6.317-6.32H107.6V166.646z"
			/>
		<path fill="#FFFFFF" d="M116.939,124.393c-2.002,0-3.687,1.125-4.666,2.718c-0.889,1.449-3.087,5.255-4.966,8.537
			c-1.737,3.026-0.683,6.9,2.34,8.646l2.446,1.414c3.023,1.744,6.883,0.705,8.627-2.317c3.118-5.391,7.565-13.111,8.728-15.104
			c1.192-2.06,3.159-3.423,5.442-3.792c0.688-0.11,0.693-0.099-0.002-0.099h-17.95V124.393z"/>
		<path fill="#FFFFFF" d="M144.328,146.844l-2.396,1.381c-3.022,1.748-4.059,5.61-2.312,8.633l4.614,7.998c3.606,0,7.16,0,7.164,0
			c2.197,0.016,4.244-1.158,5.345-3.054c1.092-1.897,1.08-4.257-0.034-6.147c0-0.004-1.702-2.959-3.751-6.5
			C151.215,146.131,147.348,145.1,144.328,146.844"/>
	</g>
</g>
<g>
	<rect x="108.539" y="173.876" fill="#FFFFFF" width="14.626" height="12.62"/>
	<rect x="126.492" y="173.876" fill="#FFFFFF" width="14.626" height="12.62"/>
	<rect x="90.586" y="173.876" fill="#FFFFFF" width="14.629" height="12.62"/>
	<rect x="108.539" y="156.57" fill="#FFFFFF" width="14.626" height="12.617"/>
	<rect x="90.586" y="156.57" fill="#FFFFFF" width="14.629" height="12.617"/>
	<rect x="126.492" y="156.57" fill="#FFFFFF" width="14.626" height="12.617"/>
	<rect x="108.539" y="139.268" fill="#FFFFFF" width="14.626" height="12.615"/>
	<rect x="90.586" y="139.268" fill="#FFFFFF" width="14.629" height="12.615"/>
	<rect x="144.441" y="173.876" fill="#FFFFFF" width="14.627" height="12.62"/>
	<path fill="#FDFDFE" d="M123.166,60.412L60.593,90.485v99.103h23.19v-80.557h82.438v80.557h23.186V90.485L123.166,60.412z
		 M139.305,85.639c1.18,2.045,2.163,3.751,2.163,3.753c0.644,1.091,0.65,2.453,0.021,3.549c-0.635,1.093-1.816,1.771-3.084,1.76
		c-0.002,0-2.057,0-4.135,0l-2.666-4.615c-1.01-1.744-0.41-3.971,1.334-4.982l1.383-0.799
		C136.064,83.298,138.293,83.895,139.305,85.639z M112.952,77.845c1.085-1.895,2.353-4.091,2.869-4.928
		c0.561-0.919,1.536-1.569,2.691-1.569v-0.001h10.359c0.402,0,0.398-0.006,0.003,0.058c-1.319,0.212-2.451,1-3.142,2.188
		c-0.668,1.153-3.239,5.606-5.036,8.72c-1.005,1.746-3.235,2.342-4.979,1.336l-1.415-0.816
		C112.559,81.827,111.952,79.591,112.952,77.845z M109.973,102.63c0.144,0.376,0.15,0.376-0.052,0.025l-5.18-8.973
		c-0.577-1.001-0.531-2.188,0.017-3.117l2.241-3.88l-2.25-1.293c-0.35-0.199-0.312-0.411,0.089-0.467
		c1.841-0.249,6.688-0.796,8.253,0.104c1.561,0.903,3.511,5.374,4.216,7.096c0.153,0.372-0.01,0.514-0.361,0.31l-2.251-1.306
		l-4.393,7.61C109.603,99.926,109.495,101.362,109.973,102.63z M122.1,100.985c0,2.014-1.631,3.645-3.647,3.645h-4.333
		c-1.266,0.012-2.446-0.667-3.079-1.763c-0.635-1.096-0.627-2.455,0.012-3.544c0.003-0.004,1.03-1.782,2.069-3.585h5.333
		c2.014,0,3.645,1.632,3.645,3.646V100.985z M124.267,82.53l2.272-1.276l-2.09-3.617c1.036-1.806,2.066-3.58,2.068-3.582
		c0.623-1.099,1.793-1.794,3.06-1.796c1.263-0.004,2.432,0.686,3.067,1.778c0.451,0.778,1.573,2.744,1.573,2.744l2.245-1.302
		c0.35-0.205,0.516-0.062,0.362,0.309c-0.707,1.722-2.657,6.193-4.218,7.092c-1.563,0.902-6.41,0.357-8.255,0.108
		C123.954,82.935,123.918,82.725,124.267,82.53z M141.859,94.015l-5.178,8.974c-0.58,1-1.63,1.557-2.711,1.546h-4.477l0.004,2.593
		c0,0.401-0.204,0.473-0.448,0.157c-1.141-1.474-4.038-5.397-4.038-7.2c0-1.806,2.897-5.728,4.038-7.2
		c0.244-0.319,0.448-0.246,0.448,0.157l-0.004,2.602c0-0.002,8.785-0.002,8.785-0.002c1.373,0.012,2.673-0.612,3.527-1.659
		C142.063,93.671,142.059,93.665,141.859,94.015z"/>
</g>
<g display="none">
	<path display="inline" fill="#FFFFFF" d="M181.779,67.495c-0.055-0.935-0.828-1.664-1.766-1.664h-25.418
		c-0.938,0-1.714,0.729-1.77,1.664l-2.889,47.537h-7.764V93.559c0-0.638-0.342-1.226-0.896-1.541
		c-0.553-0.315-1.23-0.307-1.779,0.02l-33.559,19.968V93.559c0-0.63-0.333-1.214-0.876-1.529c-0.544-0.319-1.215-0.323-1.764-0.014
		l-41.156,23.243c-0.558,0.313-0.901,0.903-0.901,1.543v65.595c0,0.98,0.793,1.771,1.771,1.771h123.973
		c0.488,0,0.955-0.197,1.289-0.557c0.334-0.354,0.508-0.834,0.478-1.319L181.779,67.495z"/>
	<path display="inline" fill="#61A043" d="M149.794,154.1c-1.219,1.49-3.063,2.379-5.015,2.358c0,0-12.483,0-12.483,0.004
		l0.006-3.696c0-0.572-0.29-0.678-0.64-0.227c-1.617,2.094-5.734,7.67-5.734,10.234c0,2.561,4.117,8.137,5.734,10.227
		c0.35,0.451,0.64,0.35,0.64-0.223l-0.006-3.682h6.36c1.537,0.008,3.029-0.777,3.851-2.197l7.356-12.752
		C150.15,153.652,150.157,153.656,149.794,154.1"/>
	<path display="inline" fill="#61A043" d="M142.199,127.807l-3.188,1.848c0.002,0-1.599-2.79-2.236-3.896
		c-0.904-1.553-2.563-2.532-4.361-2.524c-1.798,0-3.462,0.985-4.346,2.549c-0.004,0.004-1.467,2.524-2.938,5.089l2.967,5.141
		l-3.227,1.811c-0.498,0.279-0.446,0.58,0.12,0.652c2.618,0.354,9.509,1.133,11.729-0.15c2.217-1.28,4.987-7.631,5.991-10.075
		C142.93,127.717,142.695,127.518,142.199,127.807"/>
	<path display="inline" fill="#61A043" d="M139.156,140.352l-1.967,1.138c-2.478,1.428-3.328,4.599-1.895,7.073l3.785,6.562
		c2.957,0,5.874,0,5.876,0c1.803,0.012,3.479-0.949,4.381-2.506c0.899-1.554,0.888-3.49-0.024-5.043c0,0-1.398-2.425-3.078-5.327
		C144.803,139.768,141.634,138.92,139.156,140.352"/>
	<path display="inline" fill="#61A043" d="M97.125,153.672l7.362,12.752c0.285,0.494,0.277,0.494,0.074-0.039
		c-0.68-1.798-0.526-3.841,0.466-5.525l6.242-10.811l3.2,1.854c0.494,0.287,0.73,0.089,0.513-0.44
		c-1.002-2.446-3.773-8.802-5.992-10.082c-2.221-1.28-9.11-0.502-11.729-0.147c-0.568,0.074-0.624,0.377-0.127,0.662l3.2,1.836
		l-3.186,5.515C96.369,150.566,96.306,152.251,97.125,153.672"/>
	<path display="inline" fill="#61A043" d="M109.035,156.594c-1.477,2.564-2.935,5.086-2.937,5.094
		c-0.913,1.549-0.922,3.479-0.02,5.035c0.898,1.562,2.576,2.522,4.373,2.512h6.158c2.863,0,5.182-2.323,5.182-5.185v-2.276
		c0-2.859-2.319-5.18-5.18-5.18H109.035z"/>
	<path display="inline" fill="#61A043" d="M116.693,121.939c-1.641,0-3.024,0.924-3.823,2.229c-0.733,1.189-2.532,4.311-4.074,7
		c-1.422,2.482-0.561,5.658,1.918,7.09l2.009,1.16c2.478,1.432,5.645,0.579,7.075-1.898c2.552-4.426,6.205-10.754,7.156-12.392
		c0.979-1.687,2.59-2.807,4.464-3.107c0.564-0.091,0.568-0.082-0.004-0.082H116.693z"/>
</g>
</svg>
