<?xml version="1.0" encoding="utf-8"?>
<!-- Generator: Adobe Illustrator 16.0.0, SVG Export Plug-In . SVG Version: 6.00 Build 0)  -->
<!DOCTYPE svg PUBLIC "-//W3C//DTD SVG 1.1//EN" "http://www.w3.org/Graphics/SVG/1.1/DTD/svg11.dtd">
<svg version="1.1" id="Layer_1" xmlns="http://www.w3.org/2000/svg" xmlns:xlink="http://www.w3.org/1999/xlink" x="0px" y="0px"
	 width="250px" height="250px" viewBox="0 0 250 250" enable-background="new 0 0 250 250" xml:space="preserve">
<circle fill="#61A043" cx="125" cy="125" r="114.591"/>
<g>
	<path fill="#FFFFFF" d="M144.86,77.089V57.36h-39.458v19.729H77.221V91.18h95.825V77.089H144.86z M136.408,77.086h-22.547V65.814
		h22.547V77.086z"/>
	<path fill="#FFFFFF" d="M80.361,192.64h88.503l3.402-95.821H76.955L80.361,192.64z M123.155,175.74
		c0,3.488-2.829,6.319-6.317,6.319h-7.509c-2.194,0.016-4.238-1.158-5.334-3.057c-1.099-1.901-1.087-4.257,0.022-6.147
		c0.004-0.004,1.786-3.083,3.583-6.208h9.238c3.492,0,6.317,2.832,6.317,6.321V175.74z M157.385,163.666l-8.973,15.544
		c-1.001,1.732-2.82,2.692-4.692,2.682h-7.757l0.008,4.489c0,0.702-0.356,0.822-0.779,0.274c-1.97-2.551-6.996-9.348-6.996-12.475
		c0-3.122,5.026-9.922,6.996-12.472c0.423-0.553,0.779-0.428,0.779,0.273l-0.008,4.504c0-0.003,15.222-0.003,15.222-0.003
		c2.382,0.022,4.628-1.058,6.114-2.873C157.741,163.07,157.733,163.063,157.385,163.666z M152.958,149.153
		c2.049,3.542,3.751,6.497,3.751,6.501c1.114,1.891,1.126,4.249,0.034,6.147c-1.1,1.895-3.146,3.068-5.345,3.054
		c-0.004,0-3.557,0-7.164,0l-4.614-7.998c-1.747-3.022-0.712-6.886,2.312-8.634l2.396-1.38
		C147.347,145.099,151.215,146.131,152.958,149.153z M148.037,131.547c0.604-0.348,0.89-0.106,0.623,0.538
		c-1.219,2.984-4.599,10.729-7.307,12.291c-2.704,1.561-11.106,0.614-14.299,0.187c-0.69-0.094-0.758-0.458-0.146-0.803l3.938-2.205
		l-3.624-6.271c1.797-3.125,3.582-6.198,3.586-6.202c1.073-1.903,3.103-3.107,5.296-3.112c2.195-0.007,4.216,1.187,5.319,3.082
		c0.776,1.349,2.728,4.75,2.723,4.75L148.037,131.547z M108.223,108.093h33.819v8.452h-33.819V108.093z M107.307,135.647
		c1.879-3.282,4.077-7.088,4.966-8.536c0.979-1.594,2.664-2.719,4.666-2.719h17.949c0.696,0,0.689-0.011,0.003,0.099
		c-2.284,0.37-4.25,1.734-5.443,3.792c-1.162,1.993-5.61,9.715-8.728,15.104c-1.744,3.023-5.604,4.063-8.627,2.318l-2.446-1.414
		C106.625,142.549,105.57,138.675,107.307,135.647z M93.091,148.727c-0.607-0.346-0.54-0.721,0.154-0.811
		c3.188-0.432,11.59-1.38,14.299,0.181c2.708,1.56,6.084,9.309,7.307,12.291c0.262,0.645-0.022,0.889-0.623,0.54l-3.904-2.262
		l-7.611,13.181c-1.208,2.056-1.396,4.546-0.57,6.737c0.251,0.652,0.259,0.652-0.086,0.052l-8.976-15.551
		c-1.001-1.729-0.922-3.789,0.026-5.398l3.882-6.721L93.091,148.727z"/>
</g>
<g display="none">
	<polygon display="inline" fill="#FDFDFE" points="83.783,109.031 166.22,109.031 166.22,189.588 189.406,189.588 189.406,90.485 
		123.166,60.412 60.593,90.485 60.593,189.588 83.783,189.588 	"/>
	<rect x="108.539" y="173.876" display="inline" fill="#FFFFFF" width="14.626" height="12.62"/>
	<rect x="126.492" y="173.876" display="inline" fill="#FFFFFF" width="14.626" height="12.62"/>
	<rect x="90.586" y="173.876" display="inline" fill="#FFFFFF" width="14.629" height="12.62"/>
	<rect x="108.539" y="156.57" display="inline" fill="#FFFFFF" width="14.626" height="12.618"/>
	<rect x="90.586" y="156.57" display="inline" fill="#FFFFFF" width="14.629" height="12.618"/>
	<rect x="126.492" y="156.57" display="inline" fill="#FFFFFF" width="14.626" height="12.618"/>
	<rect x="108.539" y="139.267" display="inline" fill="#FFFFFF" width="14.626" height="12.616"/>
	<rect x="90.586" y="139.267" display="inline" fill="#FFFFFF" width="14.629" height="12.616"/>
	<rect x="144.442" y="173.876" display="inline" fill="#FFFFFF" width="14.627" height="12.62"/>
	<path display="inline" fill="#61A043" d="M141.807,93.983c-0.855,1.047-2.154,1.671-3.528,1.659c0,0-8.785,0-8.785,0.002
		l0.004-2.602c0-0.403-0.204-0.476-0.448-0.157c-1.141,1.472-4.038,5.394-4.038,7.2c0,1.803,2.897,5.726,4.038,7.2
		c0.244,0.316,0.448,0.244,0.448-0.157l-0.004-2.593h4.477c1.081,0.011,2.13-0.546,2.71-1.546l5.178-8.974
		C142.058,93.665,142.062,93.671,141.807,93.983"/>
	<path display="inline" fill="#61A043" d="M136.463,75.479l-2.245,1.302c0,0-1.123-1.966-1.573-2.744
		c-0.636-1.092-1.805-1.782-3.068-1.778c-1.267,0.002-2.437,0.697-3.06,1.796c-0.002,0.002-1.032,1.776-2.068,3.582l2.09,3.617
		l-2.272,1.276c-0.349,0.195-0.313,0.405,0.085,0.458c1.845,0.249,6.692,0.794,8.255-0.108c1.561-0.899,3.511-5.37,4.218-7.092
		C136.978,75.417,136.812,75.274,136.463,75.479"/>
	<path display="inline" fill="#61A043" d="M134.321,84.305l-1.384,0.799c-1.744,1.011-2.343,3.238-1.334,4.982l2.666,4.615
		c2.079,0,4.133,0,4.135,0c1.268,0.011,2.449-0.667,3.084-1.76c0.63-1.096,0.624-2.458-0.02-3.549c0-0.002-0.983-1.708-2.164-3.753
		C138.293,83.895,136.065,83.298,134.321,84.305"/>
	<path display="inline" fill="#61A043" d="M104.741,93.682l5.18,8.973c0.202,0.351,0.196,0.351,0.052-0.025
		c-0.478-1.268-0.37-2.704,0.329-3.891l4.393-7.61l2.251,1.306c0.351,0.204,0.514,0.062,0.361-0.31
		c-0.705-1.722-2.655-6.193-4.216-7.096c-1.565-0.9-6.412-0.353-8.253-0.104c-0.401,0.056-0.439,0.268-0.089,0.467l2.25,1.293
		l-2.241,3.88C104.21,91.494,104.164,92.681,104.741,93.682"/>
	<path display="inline" fill="#61A043" d="M113.122,95.738c-1.039,1.803-2.066,3.581-2.069,3.585
		c-0.639,1.089-0.647,2.448-0.012,3.544c0.633,1.096,1.813,1.775,3.079,1.763h4.333c2.016,0,3.647-1.631,3.647-3.645v-1.601
		c0-2.014-1.631-3.646-3.645-3.646H113.122z"/>
	<path display="inline" fill="#61A043" d="M118.512,71.348c-1.155,0-2.13,0.65-2.691,1.569c-0.516,0.837-1.784,3.033-2.869,4.928
		c-1,1.746-0.393,3.982,1.351,4.988l1.415,0.816c1.744,1.006,3.974,0.41,4.979-1.336c1.796-3.114,4.367-7.567,5.035-8.72
		c0.691-1.188,1.823-1.976,3.142-2.188c0.396-0.064,0.4-0.058-0.003-0.058H118.512z"/>
</g>
<g display="none">
	<path display="inline" fill="#FFFFFF" d="M181.78,67.495c-0.055-0.935-0.829-1.664-1.767-1.664h-25.418
		c-0.937,0-1.713,0.729-1.769,1.664l-2.888,47.537h-7.764V93.559c0-0.638-0.342-1.226-0.896-1.541
		c-0.553-0.315-1.231-0.307-1.78,0.02l-33.559,19.968V93.559c0-0.63-0.333-1.214-0.876-1.529c-0.544-0.319-1.215-0.323-1.764-0.014
		l-41.156,23.243c-0.558,0.313-0.901,0.903-0.901,1.543v65.595c0,0.98,0.793,1.771,1.771,1.771h123.973
		c0.488,0,0.955-0.198,1.289-0.557c0.335-0.354,0.508-0.833,0.478-1.319L181.78,67.495z"/>
	<path display="inline" fill="#61A043" d="M149.794,154.1c-1.219,1.49-3.063,2.378-5.015,2.358c0,0-12.483,0-12.483,0.004
		l0.006-3.697c0-0.571-0.29-0.677-0.64-0.226c-1.617,2.094-5.734,7.67-5.734,10.234c0,2.561,4.117,8.137,5.734,10.227
		c0.35,0.451,0.64,0.35,0.64-0.222l-0.006-3.682h6.36c1.537,0.008,3.029-0.778,3.851-2.198l7.356-12.752
		C150.151,153.652,150.157,153.656,149.794,154.1"/>
	<path display="inline" fill="#61A043" d="M142.199,127.806l-3.188,1.849c0.002,0-1.598-2.791-2.235-3.896
		c-0.905-1.553-2.564-2.532-4.362-2.524c-1.798,0-3.462,0.985-4.345,2.549c-0.004,0.004-1.468,2.524-2.938,5.089l2.967,5.141
		l-3.227,1.81c-0.498,0.28-0.446,0.58,0.12,0.653c2.619,0.354,9.509,1.133,11.729-0.151c2.218-1.28,4.988-7.631,5.992-10.075
		C142.929,127.717,142.695,127.518,142.199,127.806"/>
	<path display="inline" fill="#61A043" d="M139.156,140.352l-1.967,1.137c-2.477,1.428-3.327,4.599-1.894,7.074l3.785,6.561
		c2.957,0,5.874,0,5.876,0c1.803,0.012,3.479-0.949,4.381-2.506c0.899-1.553,0.888-3.49-0.025-5.043c0,0-1.398-2.425-3.078-5.327
		C144.803,139.768,141.634,138.92,139.156,140.352"/>
	<path display="inline" fill="#61A043" d="M97.125,153.672l7.362,12.752c0.285,0.494,0.277,0.494,0.074-0.039
		c-0.68-1.798-0.526-3.841,0.466-5.526l6.242-10.81l3.2,1.853c0.494,0.288,0.73,0.089,0.513-0.44
		c-1.002-2.447-3.773-8.802-5.992-10.082c-2.221-1.28-9.11-0.502-11.729-0.147c-0.568,0.073-0.624,0.377-0.127,0.661l3.2,1.837
		l-3.186,5.514C96.369,150.566,96.306,152.251,97.125,153.672"/>
	<path display="inline" fill="#61A043" d="M109.035,156.594c-1.477,2.564-2.935,5.086-2.937,5.094
		c-0.913,1.549-0.922,3.479-0.02,5.035c0.898,1.561,2.576,2.522,4.373,2.511h6.158c2.863,0,5.182-2.323,5.182-5.184v-2.276
		c0-2.86-2.319-5.18-5.18-5.18H109.035z"/>
	<path display="inline" fill="#61A043" d="M116.693,121.939c-1.641,0-3.024,0.924-3.823,2.229c-0.733,1.189-2.532,4.311-4.074,7
		c-1.422,2.482-0.561,5.658,1.918,7.09l2.009,1.16c2.478,1.432,5.645,0.579,7.075-1.899c2.552-4.425,6.205-10.753,7.156-12.391
		c0.98-1.687,2.59-2.807,4.464-3.107c0.565-0.091,0.569-0.082-0.004-0.082H116.693z"/>
</g>
</svg>
