<?xml version="1.0" encoding="utf-8"?>
<!-- Generator: Adobe Illustrator 16.0.0, SVG Export Plug-In . SVG Version: 6.00 Build 0)  -->
<!DOCTYPE svg PUBLIC "-//W3C//DTD SVG 1.1//EN" "http://www.w3.org/Graphics/SVG/1.1/DTD/svg11.dtd">
<svg version="1.1" id="Layer_1" xmlns="http://www.w3.org/2000/svg" xmlns:xlink="http://www.w3.org/1999/xlink" x="0px" y="0px"
	 width="300px" height="100px" viewBox="0 0 300 100" enable-background="new 0 0 300 100" xml:space="preserve">
<g>
	<path fill="#6CB33F" d="M75.327,22.768c0.718-4.056-0.447-8.392-3.54-11.578c-3.979-4.099-9.956-5.07-14.896-2.892
		c-2.076-4.005-5.876-7.064-10.644-8.005c-7.713-1.525-15.214,3.035-17.556,10.346c-3.742-1.487-8.082-1.433-11.952,0.549
		c-7.12,3.639-9.939,12.357-6.304,19.478c-4.293,1.275-7.94,4.497-9.549,9.038C-1.784,47.242,2.158,55.523,9.7,58.199
		c2.915,1.035,5.927,1.055,8.693,0.281c4.182-1.623,18.438-0.713,16.966,18.326c0,0,1.808-8.467,1.612-12.549
		c-0.119-2.42-1.778-5.535-4.201-6.742c-2.172-1.088-7.011-2.697-10.314-4.756c-3.606-2.247-3.6-6.67,2.785-5.051
		c3.614,0.916,7.261,3.352,8.651,2.17c1.086-0.923-1.278-5.574-3.213-10.449c-1.804-4.526-3.371-9.112-3.507-9.499
		c-0.918-2.575-0.721-4.32,0.89-4.939c1.256-0.48,2.76-0.222,3.969,2.466c3.266,7.236,4.369,14.676,6.712,14.327
		c2.414-0.364,0.036-10.682,0.708-18.948c0.244-2.979,0.865-4.277,2.787-4.301c1.693-0.031,2.709,1.467,2.814,5.001
		c0.325,11.25-1.697,17.897,1.29,18.124c1.753,0.132,2.289-6.186,5.913-14.596c0.643-1.5,1.741-4.26,4.043-3.314
		c2.093,0.859,1.689,3.299,0.723,5.553c-4.198,9.769-6.652,13.775-4.766,14.769c0.968,0.511,2.257-0.598,3.954-2.595
		c1.724-2.035,3.374-4.217,3.729-4.648c1.15-1.428,2.659-2.068,3.725-1.021c0.781,0.766,0.593,2.594-0.743,4.208
		c-2.664,3.219-5.021,5.714-6.667,7.755c-2.268,2.803-3.402,4.652-3.959,5.562c-1.116,1.801-2.678,3.893-3.609,9.381
		c-0.841,4.961,1.785,11.977,2.165,13.764c-3.272-26.157,13.193-28.574,18.414-28.503c6.787,0.124,12.67-4.948,13.427-11.83
		C83.321,30.423,80.212,25.166,75.327,22.768"/>
	<path fill="#524F26" d="M297.822,51.689v-0.252c0-1.264-0.708-2.123-1.818-2.123c-1.262,0-1.919,0.809-1.919,2.324v0.303v25.754
		v0.303c0,3.131,1.565,5.352,3.637,5.352c1.01,0,1.868-0.807,1.868-1.816c0-0.656-0.253-1.111-0.908-1.615
		c-0.657-0.508-0.859-1.012-0.859-2.223v-0.303V51.689z M287.218,77.09V60.98c0-1.16-0.758-1.971-1.868-1.971
		c-0.858,0-1.515,0.557-1.769,1.416c-0.101,0.402-0.202,0.504-0.402,0.453c-0.103,0-0.202,0-0.253-0.051
		c-0.052,0-0.151,0-0.253-0.102c-2.121-1.313-3.787-1.816-5.908-1.816c-3.283,0-6.261,1.363-8.23,3.838
		c-1.818,2.223-2.524,4.443-2.524,8.078c0,3.688,0.706,6.01,2.425,8.131c1.968,2.424,5.2,3.938,8.33,3.938
		c2.373,0,4.595-0.756,6.564-2.322c0.202-0.201,0.304-0.201,0.404-0.201c0.102,0,0.202,0,0.253,0.152
		c0.857,1.414,1.918,2.17,3.182,2.17c0.959,0,1.717-0.908,1.717-2.02c0-0.455-0.151-0.908-0.555-1.211l-0.203-0.201
		c-0.656-0.607-0.909-1.113-0.909-2.021V77.09z M283.379,70.373v0.506c0,2.928-0.2,3.836-1.161,5.451
		c-1.06,1.719-3.182,2.828-5.453,2.828c-2.777,0-5.402-1.715-6.312-4.141c-0.354-0.959-0.556-2.473-0.556-4.342
		c0-1.061,0.051-1.969,0.15-2.525c0.606-3.18,3.434-5.605,6.666-5.605c1.971,0,3.89,0.91,5.15,2.475
		C283.076,66.484,283.379,67.545,283.379,70.373 M259.697,58.557l0.051-7.221v-0.252c0-1.314-0.758-2.123-1.918-2.123
		c-1.213,0-1.92,0.809-1.92,2.123v0.301l-0.05,6.92v0.201v0.102c0,0.504-0.152,0.605-0.708,0.605h-0.102h-0.15
		c-1.717,0-2.575,0.656-2.575,1.971c0,1.209,0.809,1.867,2.523,1.867h0.153h0.049c0.607,0,0.76,0.102,0.76,0.555v0.203l-0.103,14.34
		v0.102c0,3.535,1.363,4.848,4.848,4.848c1.717,0,2.626-0.605,2.626-1.869c0-1.061-0.606-1.717-1.717-1.867l-0.454-0.051
		c-1.161-0.201-1.465-0.605-1.465-2.07v-0.252l0.102-13.281v-0.102c0-0.504,0.05-0.555,0.706-0.555h0.706h0.203
		c1.313,0,2.122-0.707,2.122-1.92c0-1.412-0.708-1.867-2.93-1.918c-0.707,0-0.758,0-0.758-0.555V58.557z M240.257,68.857v-0.303
		c0-3.637,1.767-5.857,4.697-5.857c0.756,0,1.665,0.404,2.776,1.213c0.556,0.352,0.758,0.455,1.111,0.455
		c1.01,0,1.868-0.91,1.868-1.973c0-0.605-0.252-1.109-0.909-1.613c-1.363-1.111-3.13-1.77-4.847-1.77
		c-1.264,0-2.931,0.557-4.243,1.363c-0.202,0.152-0.252,0.152-0.303,0.152c-0.1,0-0.202,0-0.403-0.303
		c-0.354-0.605-0.959-0.908-1.616-0.908c-1.263,0-1.919,0.857-1.919,2.625v0.252v18.23v0.303c0,1.615,0.605,2.322,1.919,2.322
		c1.313,0,1.868-0.707,1.868-2.424V80.32V68.857z M231.724,70.475c-0.153-6.969-4.495-11.867-10.504-11.867
		c-1.868,0-3.687,0.504-5.303,1.516c-3.938,2.373-5.353,5.201-5.353,10.553c0,1.818,0.202,3.434,0.505,4.746
		c1.111,4.344,5.353,7.473,10.049,7.473c6.313,0,10.605-4.846,10.605-12.016V70.475z M227.885,70.07v0.453
		c0,1.414-0.101,2.627-0.303,3.586c-0.657,2.879-3.383,5-6.413,5c-3.233,0-6.06-2.373-6.515-5.455
		c-0.101-0.707-0.202-2.322-0.202-3.686c0-1.111,0.053-1.918,0.152-2.475c0.505-2.879,3.331-5.051,6.665-5.051
		C225.411,62.443,227.784,65.172,227.885,70.07 M190.266,61.434l-0.102,0.102c-0.05,0.102-0.15,0.102-0.201,0.102
		c-0.102,0-0.152,0-0.152-0.303c-0.102-1.111-0.908-1.92-1.97-1.92c-1.212,0-1.817,0.809-1.817,2.373v0.305l-0.101,28.984v0.102
		c0,1.414,0.706,2.221,1.869,2.221c1.262,0,1.97-0.807,1.97-2.271v-0.354l0.049-9.039v-0.15c0-0.203,0.101-0.203,0.203-0.303
		c0.101,0,0.15,0,0.404,0.252c1.412,1.111,4.14,1.918,6.21,1.918c2.626,0,5.202-1.01,7.12-2.879
		c2.424-2.373,3.332-4.947,3.332-9.342c0-7.221-4.19-11.916-10.654-11.916c-2.322,0-4.444,0.707-6.008,2.02L190.266,61.434z
		 M203.294,71.686c-0.051,2.777-0.303,3.787-1.262,5.252c-1.264,1.768-3.133,2.777-5.354,2.777c-2.423,0-4.595-1.213-5.857-3.232
		c-0.959-1.564-1.059-2.068-1.059-5.807c0-2.576,0.252-3.586,1.312-4.949c1.212-1.516,3.384-2.574,5.353-2.574
		c2.121,0,4.444,1.213,5.707,2.928c0.908,1.213,1.161,2.322,1.161,5.051V71.686z"/>
	<path fill="#6CB33F" d="M179.813,51.438c0-1.314-0.858-2.223-2.07-2.223c-1.263,0-2.223,0.909-2.223,2.17
		c0,1.213,0.96,2.172,2.171,2.172C178.853,53.557,179.813,52.598,179.813,51.438 M175.723,80.674v0.252
		c0,1.465,0.655,2.223,1.818,2.223c1.312,0,2.02-0.908,2.02-2.627v-0.199V61.891v-0.254c0-1.264-0.808-2.223-1.919-2.223
		c-1.11,0-1.919,0.91-1.919,2.072v0.301V80.674z M153.455,60.777v-8.988v-0.352c0-1.516-0.708-2.324-1.971-2.324
		c-1.161,0-1.869,0.808-1.869,2.222v0.15l0.103,29.035v0.254c0,1.615,0.605,2.322,1.816,2.322c1.062,0,1.87-0.707,2.021-1.869
		c0-0.201,0.101-0.201,0.152-0.303c0.049,0,0.101,0,0.151,0.102l0.101,0.102l0.152,0.152c1.564,1.262,3.686,1.969,6.008,1.969
		c3.687,0,7.171-1.92,9.09-5.102c1.11-1.867,1.566-3.887,1.566-7.018c0-4.141-0.959-6.768-3.334-9.09
		c-1.918-1.869-4.493-2.93-7.12-2.93c-2.121,0-4.797,0.857-6.21,1.92c-0.102,0.1-0.202,0.1-0.202,0.15
		c-0.051,0.051-0.153,0.051-0.254,0.051c-0.15,0-0.2,0-0.2-0.303V60.777z M166.987,70.93v0.504c0,2.727-0.252,3.787-1.162,5.049
		c-1.16,1.666-3.635,2.928-5.706,2.928c-1.969,0-4.091-1.008-5.352-2.574c-1.161-1.414-1.313-2.172-1.313-5.605
		c0-3.029,0.1-3.635,1.059-5.15c1.313-2.02,3.435-3.232,5.858-3.232c2.171,0,4.091,1.01,5.353,2.828
		C166.686,67.092,166.938,68.15,166.987,70.93 M143.608,67.443v-0.252c0-4.645-3.787-8.18-8.736-8.18
		c-2.323,0-4.545,0.857-6.413,2.475c-0.202,0.201-0.303,0.25-0.454,0.25c-0.152,0-0.303-0.049-0.656-0.352
		c-1.718-1.516-3.889-2.324-6.06-2.324c-1.564,0-2.828,0.354-4.191,1.111c-0.354,0.201-0.505,0.303-0.605,0.254
		c-0.102,0-0.202,0-0.253-0.201l-0.151-0.154c-0.404-0.605-0.858-0.857-1.515-0.857c-1.262,0-1.969,0.857-1.969,2.373v0.201V80.17
		v0.252c0,1.869,0.555,2.574,1.919,2.574c1.313,0,1.918-0.857,1.918-2.727v-0.201V69.01v-0.254c0-3.938,1.616-5.908,4.848-5.908
		c3.131,0,4.696,1.92,4.696,5.758v0.203v11.814v0.203c0,1.363,0.758,2.17,1.919,2.17c1.161,0,1.969-0.857,1.969-2.17v-0.404V68.908
		v-0.252c0-3.736,1.766-5.809,4.948-5.809c3.081,0,4.849,1.869,4.849,5.102v0.252v12.422v0.152c0,1.414,0.706,2.221,1.867,2.221
		c1.212,0,2.071-0.857,2.071-2.271v-0.252V67.443z M105.735,77.088V60.98c0-1.16-0.757-1.969-1.869-1.969
		c-0.858,0-1.515,0.555-1.767,1.414c-0.102,0.402-0.202,0.504-0.404,0.455c-0.101,0-0.202,0-0.251-0.053
		c-0.051,0-0.152,0-0.254-0.102c-2.12-1.313-3.787-1.818-5.908-1.818c-3.282,0-6.261,1.365-8.23,3.84
		c-1.819,2.221-2.525,4.443-2.525,8.078c0,3.688,0.706,6.01,2.423,8.131c1.969,2.424,5.201,3.938,8.332,3.938
		c2.374,0,4.596-0.756,6.565-2.322c0.202-0.201,0.304-0.201,0.404-0.201s0.203,0,0.252,0.15c0.858,1.414,1.919,2.172,3.181,2.172
		c0.96,0,1.717-0.908,1.717-2.02c0-0.455-0.151-0.908-0.556-1.211l-0.201-0.201c-0.656-0.607-0.909-1.113-0.909-2.021V77.088z
		 M101.897,70.373v0.506c0,2.928-0.202,3.836-1.161,5.451c-1.061,1.719-3.181,2.83-5.455,2.83c-2.777,0-5.402-1.717-6.311-4.143
		c-0.354-0.959-0.557-2.475-0.557-4.342c0-1.061,0.051-1.969,0.153-2.525c0.606-3.182,3.433-5.604,6.665-5.604
		c1.969,0,3.889,0.906,5.15,2.473C101.595,66.484,101.897,67.545,101.897,70.373"/>
</g>
</svg>
