<?xml version="1.0" encoding="utf-8"?>
<!-- Generator: Adobe Illustrator 16.0.0, SVG Export Plug-In . SVG Version: 6.00 Build 0)  -->
<!DOCTYPE svg PUBLIC "-//W3C//DTD SVG 1.1//EN" "http://www.w3.org/Graphics/SVG/1.1/DTD/svg11.dtd">
<svg version="1.1" id="Layer_1" xmlns="http://www.w3.org/2000/svg" xmlns:xlink="http://www.w3.org/1999/xlink" x="0px" y="0px"
	 width="1000px" height="3000px" viewBox="0 0 1000 3000" enable-background="new 0 0 1000 3000" xml:space="preserve">
<g opacity="0.8">
	<path fill="#939598" d="M950.604,2186.437v-84.627v-209.091V1582.28h-1.075c-8.823-154.444-136.844-276.971-293.498-276.971
		c-8.028,0-15.977,0.339-23.843,0.971H344.314c-9.94,0-18-8.058-18-17.998V698.262c1.229-6.908,6.403-12.442,13.109-14.216h4.609
		c4.932,0,9.835-0.126,14.708-0.367c1,0.019,2.062,0.032,3.292,0.032v-0.229c148.235-8.956,266.821-127.736,275.473-276.054h0.526
		V305.635H362.032v84.412c-0.001,8.345-5.688,15.342-13.392,17.38h-4.608c-4.933,0-9.835,0.127-14.708,0.367
		c-1.001-0.019-2.062-0.031-3.292-0.031v0.23c-148.324,8.96-266.965,127.877-275.49,276.316h-0.228v4.527
		c-0.176,4.176-0.283,8.371-0.283,12.591s0.106,8.415,0.283,12.591v591.291h0.503c8.823,154.445,136.842,276.971,293.497,276.971
		c8.029,0,15.978-0.339,23.844-0.971h287.874c9.941,0,18,8.059,18,18h0.283v293.418c0.097-0.007,0.193-0.017,0.29-0.021v209.104
		v67.246c-0.001,8.345-5.688,15.342-13.391,17.381h-4.609c-4.932,0-9.835,0.126-14.708,0.366c-1.001-0.02-2.062-0.03-3.292-0.03
		v0.229c-153.764,9.29-275.64,136.743-275.991,292.762h-0.581v207.334h275.999v5.399c0.191,0.013,0.382,1.788,0.573,1.801v-213.86
		c0-8.346,5.688-15.344,13.392-17.383h4.608c4.934,0,9.837-0.126,14.709-0.366c1.001,0.019,2.063,0.03,3.291,0.03v-0.229
		c148.236-8.956,266.823-127.735,275.474-276.053H950.604z"/>
</g>
</svg>
