<?xml version="1.0" encoding="utf-8"?>
<!-- Generator: Adobe Illustrator 16.0.0, SVG Export Plug-In . SVG Version: 6.00 Build 0)  -->
<!DOCTYPE svg PUBLIC "-//W3C//DTD SVG 1.1//EN" "http://www.w3.org/Graphics/SVG/1.1/DTD/svg11.dtd">
<svg version="1.1" id="Layer_1" xmlns="http://www.w3.org/2000/svg" xmlns:xlink="http://www.w3.org/1999/xlink" x="0px" y="0px"
	 width="250px" height="250px" viewBox="0 0 250 250" enable-background="new 0 0 250 250" xml:space="preserve">
<g>
	<path fill="#FFFFFF" d="M59.608,224.087h129.65l4.984-140.37H54.618L59.608,224.087z M122.294,199.331
		c0,5.11-4.143,9.259-9.253,9.259h-11c-3.214,0.021-6.209-1.699-7.813-4.479c-1.61-2.786-1.593-6.236,0.033-9.006
		c0.006-0.006,2.617-4.518,5.248-9.095h13.532c5.115,0,9.253,4.15,9.253,9.259V199.331z M172.439,181.643l-13.144,22.771
		c-1.467,2.539-4.132,3.946-6.874,3.93h-11.363l0.012,6.577c0,1.027-0.522,1.203-1.143,0.4
		c-2.885-3.735-10.248-13.692-10.248-18.274c0-4.573,7.363-14.534,10.248-18.271c0.621-0.809,1.143-0.627,1.143,0.4l-0.012,6.6
		c0-0.006,22.299-0.006,22.299-0.006c3.49,0.033,6.781-1.549,8.957-4.209C172.963,180.77,172.952,180.758,172.439,181.643z
		 M165.956,160.382c3,5.187,5.494,9.517,5.494,9.522c1.633,2.77,1.649,6.227,0.05,9.006c-1.609,2.775-4.609,4.494-7.829,4.474
		c-0.007,0-5.21,0-10.495,0l-6.76-11.716c-2.561-4.427-1.043-10.087,3.386-12.648l3.511-2.021
		C157.736,154.443,163.402,155.955,165.956,160.382z M158.748,134.592c0.885-0.512,1.303-0.156,0.912,0.788
		c-1.786,4.372-6.737,15.72-10.704,18.005c-3.962,2.285-16.269,0.9-20.944,0.274c-1.013-0.138-1.111-0.671-0.216-1.177l5.771-3.23
		l-5.31-9.188c2.634-4.578,5.248-9.08,5.255-9.086c1.57-2.789,4.543-4.552,7.758-4.558c3.215-0.011,6.176,1.739,7.791,4.513
		c1.138,1.978,3.996,6.961,3.989,6.961L158.748,134.592z M100.424,100.232h49.541v12.381h-49.541V100.232z M99.081,140.598
		c2.753-4.809,5.973-10.383,7.275-12.504c1.434-2.336,3.901-3.984,6.835-3.984v-0.001h26.293c1.021,0,1.011-0.017,0.005,0.146
		c-3.347,0.541-6.226,2.539-7.974,5.556c-1.703,2.92-8.22,14.231-12.786,22.127c-2.555,4.43-8.209,5.951-12.638,3.396l-3.583-2.07
		C98.081,150.707,96.537,145.032,99.081,140.598z M78.255,159.758c-0.89-0.506-0.791-1.056,0.225-1.188
		c4.671-0.633,16.978-2.021,20.946,0.264c3.968,2.285,8.913,13.639,10.704,18.006c0.384,0.945-0.033,1.303-0.912,0.791l-5.72-3.313
		l-11.149,19.308c-1.769,3.013-2.044,6.66-0.835,9.869c0.369,0.956,0.379,0.956-0.126,0.077L78.24,180.791
		c-1.468-2.533-1.352-5.55,0.037-7.907l5.687-9.847L78.255,159.758z"/>
	<path fill="#FFFFFF" d="M154.094,54.815V25.914H96.291v28.901H55.007v20.642h140.376V54.815H154.094z M141.711,54.811h-33.029
		V38.298h33.029V54.811z"/>
</g>
</svg>
