<?xml version="1.0" encoding="utf-8"?>
<!-- Generator: Adobe Illustrator 16.0.0, SVG Export Plug-In . SVG Version: 6.00 Build 0)  -->
<!DOCTYPE svg PUBLIC "-//W3C//DTD SVG 1.1//EN" "http://www.w3.org/Graphics/SVG/1.1/DTD/svg11.dtd">
<svg version="1.1" id="Layer_1" xmlns="http://www.w3.org/2000/svg" xmlns:xlink="http://www.w3.org/1999/xlink" x="0px" y="0px"
	 width="250px" height="250px" viewBox="0 0 250 250" enable-background="new 0 0 250 250" xml:space="preserve">
<path fill="#FFFFFF" d="M224.468,79.149c2.099-11.894-1.313-24.613-10.382-33.953c-11.67-12.025-29.202-14.872-43.686-8.481
	c-6.089-11.749-17.234-20.717-31.219-23.477c-22.617-4.474-44.615,8.898-51.485,30.338c-10.972-4.362-23.7-4.201-35.052,1.611
	c-20.882,10.675-29.149,36.242-18.486,57.124c-12.592,3.734-23.287,13.187-28.004,26.505c-7.829,22.105,3.726,46.392,25.848,54.24
	c8.547,3.028,17.379,3.095,25.497,0.822c12.265-4.759,54.071-2.086,49.754,53.745c0,0,5.304-24.832,4.722-36.804
	c-0.343-7.093-5.209-16.227-12.315-19.771c-6.37-3.188-20.56-7.902-30.247-13.946c-10.576-6.589-10.559-19.561,8.167-14.813
	c10.6,2.689,21.295,9.828,25.373,6.366c3.185-2.71-3.751-16.347-9.423-30.645c-5.288-13.273-9.885-26.724-10.286-27.86
	c-2.689-7.547-2.115-12.666,2.611-14.483c3.685-1.409,8.093-0.648,11.637,7.233c9.58,21.217,12.814,43.038,19.684,42.013
	c7.081-1.066,0.107-31.33,2.082-55.567c0.715-8.737,2.533-12.542,8.172-12.616c4.965-0.087,7.943,4.304,8.253,14.669
	c0.95,32.999-4.978,52.489,3.78,53.154c5.144,0.388,6.713-18.144,17.342-42.806c1.88-4.404,5.103-12.497,11.856-9.72
	c6.135,2.52,4.949,9.675,2.115,16.284c-12.311,28.649-19.507,40.401-13.972,43.314c2.839,1.499,6.618-1.756,11.597-7.609
	c5.052-5.97,9.894-12.364,10.931-13.628c3.379-4.189,7.804-6.069,10.922-2.995c2.297,2.243,1.743,7.605-2.173,12.339
	c-7.812,9.439-14.723,16.76-19.552,22.741c-6.647,8.221-9.973,13.649-11.612,16.306c-3.268,5.292-7.85,11.422-10.584,27.521
	c-2.466,14.546,5.234,35.127,6.35,40.36c-9.597-76.709,38.687-83.798,54.001-83.587c19.907,0.363,37.158-14.513,39.373-34.701
	C247.911,101.597,238.794,86.18,224.468,79.149"/>
</svg>
