<?xml version="1.0" encoding="utf-8"?>
<!-- Generator: Adobe Illustrator 16.0.0, SVG Export Plug-In . SVG Version: 6.00 Build 0)  -->
<!DOCTYPE svg PUBLIC "-//W3C//DTD SVG 1.1//EN" "http://www.w3.org/Graphics/SVG/1.1/DTD/svg11.dtd">
<svg version="1.1" id="Layer_1" xmlns="http://www.w3.org/2000/svg" xmlns:xlink="http://www.w3.org/1999/xlink" x="0px" y="0px"
	 width="250px" height="250px" viewBox="0 0 250 250" enable-background="new 0 0 250 250" xml:space="preserve">
<g>
	<rect x="75.063" y="197.48" fill="#FFFFFF" width="21.933" height="18.924"/>
	<rect x="48.147" y="197.48" fill="#FFFFFF" width="21.935" height="18.924"/>
	<rect x="75.063" y="171.525" fill="#FFFFFF" width="21.933" height="18.925"/>
	<rect x="48.147" y="171.525" fill="#FFFFFF" width="21.935" height="18.925"/>
	<rect x="75.063" y="145.574" fill="#FFFFFF" width="21.933" height="18.924"/>
	<rect x="101.592" y="197.48" fill="#FFFFFF" width="21.933" height="18.924"/>
	<rect x="101.592" y="171.525" fill="#FFFFFF" width="21.933" height="18.925"/>
	<rect x="48.147" y="145.574" fill="#FFFFFF" width="21.935" height="18.924"/>
	<path fill="#FFFFFF" d="M97.001,27.341L3.172,72.434v148.607h34.771V100.244h123.616v120.797h34.77V72.434L97.001,27.341z
		 M121.296,66.418c1.58,2.73,2.892,5.007,2.892,5.01c0.858,1.457,0.867,3.275,0.026,4.738c-0.847,1.46-2.426,2.364-4.119,2.353
		c-0.003,0-2.741,0-5.521,0l-3.557-6.163c-1.346-2.33-0.548-5.307,1.781-6.654l1.847-1.064
		C116.972,63.294,119.952,64.089,121.296,66.418z M86.114,56.01c1.449-2.53,3.143-5.462,3.828-6.578
		c0.754-1.228,2.052-2.095,3.596-2.095h13.831c0.537,0,0.53-0.009,0.002,0.077c-1.76,0.284-3.275,1.335-4.194,2.922
		c-0.896,1.536-4.324,7.486-6.727,11.64c-1.343,2.33-4.318,3.131-6.648,1.787l-1.884-1.09C85.589,61.329,84.776,58.343,86.114,56.01
		z M82.134,89.098c0.194,0.504,0.2,0.504-0.067,0.041L75.15,77.155c-0.772-1.333-0.711-2.92,0.019-4.16l2.991-5.18l-3.002-1.725
		c-0.469-0.266-0.417-0.556,0.118-0.625c2.457-0.332,8.933-1.064,11.02,0.139c2.087,1.202,4.689,7.174,5.63,9.472
		c0.203,0.498-0.017,0.686-0.479,0.416l-3.009-1.743l-5.865,10.157C81.643,85.491,81.498,87.41,82.134,89.098z M98.327,86.907
		c0,2.689-2.18,4.871-4.868,4.871h-5.787c-1.69,0.011-3.265-0.893-4.11-2.356c-0.847-1.465-0.838-3.28,0.018-4.737
		c0.003-0.003,1.376-2.377,2.76-4.784h7.119c2.691,0,4.868,2.182,4.868,4.87V86.907z M101.219,62.262l3.036-1.699l-2.792-4.834
		c1.385-2.407,2.761-4.776,2.764-4.779c0.826-1.467,2.39-2.395,4.081-2.398c1.692-0.006,3.249,0.916,4.099,2.375
		c0.6,1.039,2.103,3.661,2.1,3.661l2.997-1.737c0.465-0.269,0.684-0.083,0.479,0.414c-0.941,2.3-3.545,8.268-5.632,9.471
		c-2.084,1.203-8.559,0.474-11.018,0.145C100.8,62.808,100.748,62.529,101.219,62.262z M124.707,77.604l-6.914,11.978
		c-0.772,1.335-2.174,2.076-3.616,2.067h-5.979l0.006,3.459c0,0.54-0.274,0.633-0.601,0.211c-1.518-1.965-5.391-7.204-5.391-9.614
		c0-2.405,3.873-7.647,5.391-9.611c0.328-0.425,0.601-0.33,0.601,0.21l-0.006,3.472c0-0.002,11.732-0.002,11.732-0.002
		c1.836,0.018,3.566-0.815,4.711-2.214C124.981,77.144,124.976,77.138,124.707,77.604z"/>
</g>
<path fill="#FFFFFF" stroke="#6BB345" stroke-width="2" stroke-linecap="round" stroke-linejoin="round" stroke-miterlimit="10" d="
	M231.477,173.449l-7.746-11.016c-0.301-0.423-0.787-0.677-1.304-0.677h-12.089c-0.878,0-1.598,0.711-1.598,1.595v11.016
	c0,0.879,0.72,1.59,1.598,1.59h19.839C231.468,175.957,232.223,174.502,231.477,173.449 M247.639,203.445v4.832
	c0,0.879-0.716,1.59-1.599,1.59h-12.892c-0.922-6.322-6.366-11.199-12.938-11.199c-6.577,0-12.021,4.877-12.942,11.199h-25.963
	c-0.466-3.188-2.078-6.001-4.408-8.016h24.619v-45.555c0-1.757,1.424-3.184,3.185-3.184h15.032c4.232,0,8.195,2.103,10.561,5.606
	l9.696,14.358c1.419,2.105,2.182,4.59,2.182,7.129v21.643h3.87C246.923,201.852,247.639,202.566,247.639,203.445 M225.161,211.759
	c0-2.733-2.218-4.952-4.951-4.952c-2.737,0-4.956,2.219-4.956,4.952c0,2.738,2.219,4.956,4.956,4.956
	C222.943,216.715,225.161,214.497,225.161,211.759 M230.116,211.759c0,5.472-4.438,9.911-9.906,9.911
	c-5.474,0-9.911-4.439-9.911-9.911s4.438-9.907,9.911-9.907C225.678,201.852,230.116,206.287,230.116,211.759 M159.824,201.852
	h-22.202c-0.878,0-1.59,0.715-1.59,1.594v4.832c0,0.88,0.712,1.591,1.59,1.591h17.8C155.887,206.68,157.492,203.866,159.824,201.852
	 M173.313,211.759c0-2.733-2.217-4.952-4.951-4.952c-2.737,0-4.955,2.219-4.955,4.952c0,2.738,2.218,4.956,4.955,4.956
	C171.096,216.715,173.313,214.497,173.313,211.759 M178.271,211.759c0,5.472-4.436,9.911-9.91,9.911
	c-5.473,0-9.908-4.439-9.908-9.911s4.436-9.907,9.908-9.907C173.837,201.852,178.271,206.287,178.271,211.759 M139.947,195.493
	v-47.485c0-2.635,2.137-4.777,4.775-4.777h47.461c2.635,0,4.777,2.144,4.777,4.777v47.485c0,0.878-0.712,1.594-1.594,1.594h-53.832
	C140.658,197.087,139.947,196.371,139.947,195.493"/>
</svg>
