<?xml version="1.0" encoding="utf-8"?>
<!-- Generator: Adobe Illustrator 16.0.0, SVG Export Plug-In . SVG Version: 6.00 Build 0)  -->
<!DOCTYPE svg PUBLIC "-//W3C//DTD SVG 1.1//EN" "http://www.w3.org/Graphics/SVG/1.1/DTD/svg11.dtd">
<svg version="1.1" id="Layer_1" xmlns="http://www.w3.org/2000/svg" xmlns:xlink="http://www.w3.org/1999/xlink" x="0px" y="0px"
	 width="200px" height="150px" viewBox="0 0 200 150" enable-background="new 0 0 200 150" xml:space="preserve">
<g>
	<g>
		<defs>
			<rect id="SVGID_1_" x="-1124.148" y="-1976.669" width="1644.848" height="4166.949"/>
		</defs>
		<clipPath id="SVGID_2_">
			<use xlink:href="#SVGID_1_"  overflow="visible"/>
		</clipPath>
		<path clip-path="url(#SVGID_2_)" fill="#FFFFFF" d="M158.705,104.451c16.993,0,30.77-13.334,30.77-29.783
			c0-16.447-13.776-29.78-30.77-29.78s-30.77,13.333-30.77,29.78C127.936,91.117,141.712,104.451,158.705,104.451"/>
		
			<ellipse clip-path="url(#SVGID_2_)" fill="none" stroke="#6CB33F" stroke-width="3.6" cx="158.705" cy="74.67" rx="30.77" ry="29.781"/>
		<path clip-path="url(#SVGID_2_)" fill="#FFFFFF" d="M79.715,142.623c37.53,0,67.954-30.424,67.954-67.954
			c0-37.53-30.424-67.954-67.954-67.954c-37.529,0-67.954,30.424-67.954,67.954C11.761,112.199,42.186,142.623,79.715,142.623"/>
		<circle clip-path="url(#SVGID_2_)" fill="none" stroke="#6CB33F" stroke-width="6.4281" cx="79.715" cy="74.669" r="67.954"/>
	</g>
	<path fill="#6CB33F" d="M75.897,54.385h7.728v3.863h-7.728V54.385z M86.521,58.249v-6.762H72.999v6.762h-9.658v4.829h32.84v-4.829
		H86.521z M73.966,68.874h11.589v2.897H73.966V68.874z M64.417,97.851h30.331l1.166-32.839H63.25L64.417,97.851z"/>
	<g>
		<defs>
			<rect id="SVGID_3_" x="-1124.148" y="-1976.669" width="1644.848" height="4166.949"/>
		</defs>
		<clipPath id="SVGID_4_">
			<use xlink:href="#SVGID_3_"  overflow="visible"/>
		</clipPath>
		<path clip-path="url(#SVGID_4_)" fill="#333333" d="M88.937,86.167c-0.425,0.519-1.065,0.827-1.746,0.82h-4.345l0.002-1.286
			c0-0.2-0.102-0.235-0.223-0.078c-0.563,0.728-1.997,2.67-1.997,3.563c0,0.891,1.435,2.833,1.997,3.561
			c0.121,0.156,0.223,0.121,0.223-0.079l-0.002-1.28h2.215c0.534,0.002,1.054-0.271,1.339-0.767l2.562-4.438
			C89.061,86.01,89.063,86.012,88.937,86.167"/>
		<path clip-path="url(#SVGID_4_)" fill="#333333" d="M86.292,77.014l-1.11,0.643c0.001,0-0.556-0.971-0.777-1.355
			c-0.314-0.542-0.892-0.883-1.519-0.881c-0.626,0.002-1.206,0.345-1.512,0.889c-0.001,0.002-0.511,0.878-1.023,1.771l1.034,1.791
			L80.261,80.5c-0.176,0.098-0.156,0.201,0.041,0.228c0.911,0.124,3.311,0.394,4.082-0.052c0.773-0.447,1.738-2.657,2.086-3.51
			C86.546,76.982,86.465,76.913,86.292,77.014"/>
		<path clip-path="url(#SVGID_4_)" fill="#333333" d="M70.603,86.018l2.563,4.439c0.099,0.171,0.096,0.171,0.024-0.016
			c-0.236-0.625-0.183-1.336,0.162-1.923l2.173-3.763L76.64,85.4c0.171,0.101,0.253,0.029,0.178-0.154
			c-0.35-0.851-1.313-3.063-2.086-3.509c-0.773-0.444-3.172-0.175-4.082-0.051c-0.198,0.026-0.218,0.132-0.044,0.231l1.112,0.638
			l-1.108,1.919C70.339,84.936,70.316,85.522,70.603,86.018"/>
		<path clip-path="url(#SVGID_4_)" fill="#333333" d="M74.747,87.034c-0.513,0.892-1.021,1.771-1.022,1.771
			c-0.316,0.54-0.32,1.212-0.007,1.756c0.313,0.542,0.896,0.876,1.523,0.872h2.144c0.996,0,1.804-0.808,1.804-1.804v-0.793
			c0-0.995-0.807-1.803-1.804-1.803H74.747z"/>
		<path clip-path="url(#SVGID_4_)" fill="#333333" d="M77.414,74.97c-0.572,0-1.053,0.322-1.332,0.777
			c-0.254,0.414-0.882,1.5-1.418,2.436c-0.496,0.866-0.195,1.97,0.668,2.469l0.698,0.403c0.863,0.497,1.965,0.201,2.463-0.661
			c0.89-1.54,2.16-3.743,2.492-4.312c0.34-0.589,0.901-0.979,1.554-1.084c0.195-0.031,0.198-0.028-0.001-0.028H77.414z"/>
		<path clip-path="url(#SVGID_4_)" fill="#333333" d="M85.233,81.38l-0.685,0.395c-0.862,0.499-1.159,1.603-0.66,2.464l1.317,2.283
			c1.03,0,2.045,0,2.046,0c0.627,0.006,1.213-0.331,1.526-0.871c0.311-0.542,0.308-1.216-0.011-1.756c0,0-0.485-0.845-1.069-1.855
			C87.199,81.177,86.096,80.881,85.233,81.38"/>
	</g>
	<text transform="matrix(1 0 0 1 50.9893 113.2666)" fill="#6CB33F" font-family="'Din17-Normal'" font-size="12.8558">PRODUTOR</text>
	<text transform="matrix(1 0 0 1 51.041 46.3564)" fill="#6CB33F" font-family="'Din17-Normal'" font-size="12.8558">DETENTOR</text>
	<g>
		<defs>
			<rect id="SVGID_5_" x="-1124.148" y="-1976.669" width="1644.848" height="4166.949"/>
		</defs>
		<clipPath id="SVGID_6_">
			<use xlink:href="#SVGID_5_"  overflow="visible"/>
		</clipPath>
		<path clip-path="url(#SVGID_6_)" fill="#6CB33F" d="M159.058,72.167c-0.788,0-0.788,1.225,0,1.225h9.421
			c0.786,0,0.786-1.225,0-1.225H159.058z"/>
		<path clip-path="url(#SVGID_6_)" fill="#6CB33F" d="M168.478,75.063h-9.42c-0.788,0-0.788,1.222,0,1.222h9.42
			C169.265,76.285,169.265,75.063,168.478,75.063"/>
		<path clip-path="url(#SVGID_6_)" fill="#6CB33F" d="M168.478,77.744h-9.42c-0.788,0-0.788,1.222,0,1.222h9.42
			C169.265,78.966,169.265,77.744,168.478,77.744"/>
		<path clip-path="url(#SVGID_6_)" fill="#6CB33F" d="M168.478,80.64h-9.42c-0.788,0-0.788,1.222,0,1.222h9.42
			C169.265,81.861,169.265,80.64,168.478,80.64"/>
		<path clip-path="url(#SVGID_6_)" fill="#6CB33F" d="M168.296,83.368h-9.419c-0.788,0-0.788,1.225,0,1.225h9.419
			C169.085,84.593,169.085,83.368,168.296,83.368"/>
	</g>
	<path fill="#6CB33F" d="M171.041,87.219h-14.545V67.422h12.014v2.412h2.531V87.219z M154.976,65.904v22.835h17.583V69.074
		l-3.264-3.17H154.976z"/>
	<polygon fill="#6CB33F" points="157.948,62.405 157.948,65.047 159.471,65.047 159.471,63.924 171.481,63.924 171.481,66.337 
		174.014,66.337 174.014,83.72 173.345,83.72 173.345,85.241 175.533,85.241 175.533,65.571 172.265,62.405 	"/>
	<polygon fill="#6CB33F" points="175.39,59.221 161.073,59.221 161.073,61.864 162.592,61.864 162.592,60.744 174.606,60.744 
		174.606,63.156 177.138,63.156 177.138,80.536 176.47,80.536 176.47,82.058 178.657,82.058 178.657,62.391 	"/>
</g>
</svg>
